<?xml version="1.0" encoding="UTF-8"?>
<svg width="46px" height="46px" viewBox="0 0 46 46" version="1.1" xmlns="http://www.w3.org/2000/svg" xmlns:xlink="http://www.w3.org/1999/xlink">
    <title>红包备份</title>
    <g id="0727dashboard蓝湖" stroke="none" stroke-width="1" fill="none" fill-rule="evenodd">
        <g id="dashboard/中文备份" transform="translate(-34.000000, -195.000000)" fill-rule="nonzero">
            <g id="红包备份" transform="translate(34.000000, 195.000000)">
                <rect id="矩形" fill="#000000" opacity="0" x="0" y="0" width="46" height="46"></rect>
                <path d="M35.1532,41.9727 L11.1734,41.9727 C7.8706,41.9727 5.1934,39.2955 5.1934,35.9927 L5.1934,9.8118 C5.1934,6.509 7.8706,3.8318 11.1734,3.8318 L35.1532,3.8318 C38.456,3.8318 41.1332,6.509 41.1332,9.8118 L41.1332,35.9927 C41.1332,39.2955 38.456,41.9727 35.1532,41.9727 Z" id="路径" fill="#F85F69"></path>
                <path d="M41.1263,9.5519 C40.9906,6.3687 38.3686,3.8318 35.1532,3.8318 L11.1734,3.8318 C7.958,3.8318 5.336,6.371 5.2003,9.5519 C5.3406,19.3568 13.3262,27.2619 23.1633,27.2619 C33.0004,27.2619 40.986,19.3568 41.1263,9.5519 Z" id="路径" fill="#F33B3D"></path>
                <path d="M14.0802494,27.568 L14.0802494,21.304 L14.1282494,21.304 L18.4122494,27.568 L19.7802494,27.568 L19.7802494,19 L18.3642494,19 L18.3642494,25.18 L18.3162494,25.18 L14.0802494,19 L12.6762494,19 L12.6762494,27.568 L14.0802494,27.568 Z M22.8642494,27.568 L22.8642494,23.776 L27.0522494,23.776 L27.0522494,22.576 L22.8642494,22.576 L22.8642494,20.2 L27.3042494,20.2 L27.3042494,19 L21.4602494,19 L21.4602494,27.568 L22.8642494,27.568 Z M32.8423506,27.568 L32.8423506,20.2 L35.6503506,20.2 L35.6503506,19 L28.6303506,19 L28.6303506,20.2 L31.4383506,20.2 L31.4383506,27.568 L32.8423506,27.568 Z" id="NFT" stroke="#FFFFFF" stroke-width="0.6" fill="#FFFFFF"></path>
            </g>
        </g>
    </g>
</svg>