<?xml version="1.0" encoding="UTF-8"?>
<svg width="46px" height="46px" viewBox="0 0 46 46" version="1.1" xmlns="http://www.w3.org/2000/svg" xmlns:xlink="http://www.w3.org/1999/xlink">
    <title>编组 16</title>
    <g id="0727dashboard蓝湖" stroke="none" stroke-width="1" fill="none" fill-rule="evenodd">
        <g id="dashboard/中文备份" transform="translate(-121.000000, -195.000000)">
            <g id="编组-16" transform="translate(121.000000, 195.000000)">
                <rect id="矩形" x="0" y="0" width="46" height="46"></rect>
                <g id="编组-15" transform="translate(4.000000, 8.000000)">
                    <path d="M34,0 C36.209139,-4.05812251e-16 38,1.790861 38,4 L38,11 L38,11 C35.790861,11 34,13.0147186 34,15.5 C34,17.9852814 35.790861,20 38,20 L38,26 C38,28.209139 36.209139,30 34,30 L4,30 C1.790861,30 2.705415e-16,28.209139 0,26 L0,20 L0,20 C2.209139,20 4,17.9852814 4,15.5 C4,13.0147186 2.209139,11 0,11 L0,4 C-2.705415e-16,1.790861 1.790861,-4.82366169e-16 4,0 L34,0 Z" id="形状结合" fill="#3179FF" opacity="0.941429501"></path>
                    <path d="M13,0 L13,30 L4,30 C1.790861,30 1.15871992e-15,28.209139 8.8817842e-16,26 L8.8817842e-16,20 L8.8817842e-16,20 C2.209139,20 4,17.9852814 4,15.5 C4,13.0147186 2.209139,11 8.8817842e-16,11 L8.8817842e-16,4 C6.17636919e-16,1.790861 1.790861,-9.26455379e-16 4,0 L13,0 Z" id="形状结合备份" fill="#75A5FF" opacity="0.941429501"></path>
                    <g id="编组-14" transform="translate(11.000000, 0.000000)" fill="#FFFFFF">
                        <path d="M1.5,22 C2.32842712,22 3,22.6715729 3,23.5 L3,30 L3,30 L0,30 L0,23.5 C-1.01453063e-16,22.6715729 0.671572875,22 1.5,22 Z" id="矩形备份-6"></path>
                        <rect id="矩形备份-7" x="0" y="11" width="3" height="9" rx="1.5"></rect>
                        <path d="M0,0 L3,0 L3,6.5 C3,7.32842712 2.32842712,8 1.5,8 C0.671572875,8 1.01453063e-16,7.32842712 0,6.5 L0,0 L0,0 Z" id="矩形备份-8"></path>
                    </g>
                </g>
            </g>
        </g>
    </g>
</svg>