<?xml version="1.0" encoding="UTF-8"?>
<svg width="241px" height="241px" viewBox="0 0 241 241" version="1.1" xmlns="http://www.w3.org/2000/svg" xmlns:xlink="http://www.w3.org/1999/xlink">
    <title>编组 8备份 2</title>
    <defs>
        <linearGradient x1="62.0122463%" y1="100%" x2="62.0122463%" y2="-32.037456%" id="linearGradient-1">
            <stop stop-color="#E9F0FF" offset="0%"></stop>
            <stop stop-color="#E9F0FF" stop-opacity="0" offset="100%"></stop>
        </linearGradient>
    </defs>
    <g id="0727dashboard蓝湖" stroke="none" stroke-width="1" fill="none" fill-rule="evenodd">
        <g id="dashboard/中文备份" transform="translate(-165.000000, -71.000000)" fill="url(#linearGradient-1)">
            <g id="编组-8备份-2" transform="translate(165.000000, 71.000000)">
                <path d="M187.418444,218.147051 L187.418444,218.201549 L191.137931,218.201549 L189.210314,219.573089 C173.248145,230.97821 154.720989,238.239641 135.282278,240.709342 L135.282278,240.709342 L132.965517,241 L134.657839,239.374134 C148.829847,225.688599 167.752028,218.07567 187.418444,218.147051 L187.418444,218.147051 Z M111.204546,232.599757 C134.647173,202.177048 173.734365,188.727974 210.681736,198.371763 L210.681736,198.371763 L211.913793,198.694495 L211.083295,199.616585 C208.454907,202.659483 205.707877,205.499521 202.869583,208.192025 L202.869583,208.192025 L202.577539,208.468652 L202.185106,208.394885 C197.116005,207.446201 191.971667,206.967796 186.816337,206.965645 C160.822843,206.856566 136.256517,218.963717 120.34002,239.727515 L120.34002,239.727515 L119.847198,240.39142 L119.39088,241 L118.998447,241 C115.037612,240.935454 111.076778,240.686489 107.216333,240.243886 L107.216333,240.243886 L105.956897,240.096351 L106.62312,239.035948 C108.065083,236.81371 109.598309,234.637577 111.186294,232.581315 L111.186294,232.581315 Z M161.225473,176.723413 C162.841894,176.379837 164.52905,176.732057 165.87003,177.693037 C167.21101,178.654016 168.080719,180.134109 168.264245,181.767572 L168.264245,181.767572 L168.245697,181.81368 C168.589971,184.788145 166.608027,187.53686 163.664468,188.167292 C139.745927,193.291526 118.416573,206.652595 103.44077,225.892438 C100.33862,229.860723 97.5276016,234.04579 95.0294838,238.415232 L95.0294838,238.415232 L94.7419977,238.922414 L94.1670256,238.793313 C90.7481051,238.03715 87.3693708,237.133443 84.0308227,236.082193 L84.0308227,236.082193 L83.1034483,235.777883 L83.5578618,234.938727 C86.6390766,229.231883 90.1939894,223.790751 94.1855731,218.672005 C109.370606,199.171936 130.473593,185.059654 154.362902,178.42939 C156.644243,177.790033 158.931767,177.221374 161.225473,176.723413 Z M148.127036,158.127523 C175.90066,150.891135 205.27049,152.643134 231.975041,163.129308 L231.975041,163.129308 L232.689655,163.411741 L232.423965,164.122377 C231.251266,167.265575 229.931979,170.381442 228.502752,173.39709 L228.502752,173.39709 L228.191254,174.062172 L227.504125,173.788851 C176.95543,153.896348 119.270038,169.50609 85.8273822,212.126761 C80.9644042,218.343432 76.7122238,225.009595 73.1292468,232.033684 L73.1292468,232.033684 L72.7994251,232.689656 L72.1214583,232.398113 C69.0339607,231.077058 65.9739483,229.610232 63.005553,228.034078 L63.005553,228.034078 L62.3275862,227.67876 L62.6757313,226.995456 C66.6171113,219.245568 71.3021867,211.892466 76.6656684,205.03862 C94.6098765,181.96886 119.742844,165.470224 148.127036,158.127523 Z M58.2439631,197.401428 C59.9237419,197.220874 61.5918719,197.84233 62.7868714,199.093874 L62.7868714,199.093874 L62.7602394,199.140439 C64.6534506,201.132774 64.946734,204.24847 63.4615482,206.590792 C60.4567795,211.383097 57.7266116,216.3588 55.2855311,221.491499 L55.2855311,221.491499 L54.9038061,222.301725 L54.1847427,221.798826 C51.468281,219.88036 48.7784513,217.812887 46.1951495,215.652285 L46.1951495,215.652285 L45.7068966,215.242515 L45.990971,214.665113 C48.4472399,209.634503 51.1617697,204.747344 54.1226014,200.025168 C55.0508437,198.545404 56.5641842,197.581982 58.2439631,197.401428 Z M79.6051033,141.275868 L79.996018,141.421924 C84.2376906,143.009939 88.6878946,143.966384 93.2052957,144.260883 L93.2052957,144.260883 L95.5689655,144.425195 L93.5689372,145.703183 L93.5416641,145.703183 C78.19705,155.540286 64.6510549,167.953273 53.4956431,182.399692 C47.5920972,190.064204 42.3862504,198.245784 37.9408776,206.845774 L37.9408776,206.845774 L37.4590526,207.758623 L36.7135875,207.019215 C34.186279,204.572781 31.7498809,201.98942 29.4407574,199.250875 L29.4407574,199.250875 L29.0862069,198.840093 L29.340756,198.365412 C33.7545428,190.286861 38.8008061,182.573346 44.4318785,175.297731 C54.3915848,162.438571 66.1212055,151.066346 79.2687349,141.522337 L79.2687349,141.522337 L79.6051033,141.275868 Z M65.9282651,183.502844 C108.656195,134.39395 177.860088,117.666801 238.37244,141.82167 L238.37244,141.82167 L238.922414,142.105215 L238.812419,142.736332 C238.656593,143.623555 238.491601,144.465045 238.308277,145.379707 C237.813301,147.78527 237.226662,150.254859 236.566694,152.697008 L236.566694,152.697008 L236.328372,153.556791 L235.503412,153.209219 C218.448346,146.112035 200.148831,142.47115 181.670178,142.49852 C175.725495,142.501469 169.78668,142.871088 163.887703,143.605262 C129.279338,147.823198 97.4863752,164.753625 74.7095078,191.094543 C73.3690117,192.724966 71.2471505,193.500669 69.1683834,193.120251 C67.0896163,192.739833 65.3816921,191.263271 64.7082328,189.264291 C64.0347736,187.265311 64.5019601,185.059081 65.9282651,183.502844 Z M59.9463905,128.810352 L60.4477318,129.412727 C62.6332943,131.921153 65.0776284,134.191158 67.7399682,136.184885 L67.7399682,136.184885 L68.5603448,136.796387 L67.7490835,137.426143 L67.7673141,137.398762 C55.9428787,146.592832 45.3139124,157.23226 36.1281233,169.069096 C30.9555984,175.730633 26.2528741,182.744903 22.054107,190.06096 L22.054107,190.06096 L21.4342669,191.137934 L20.7323891,190.115721 C18.5902947,186.994323 16.5849296,183.745147 14.7618705,180.459464 L14.7618705,180.459464 L14.5431034,180.057881 L14.7801011,179.665424 C18.5241187,173.541331 22.6049399,167.630168 27.0037125,161.959243 C36.4390825,149.802201 47.3039157,138.828542 59.3630116,129.275823 L59.3630116,129.275823 L59.9463905,128.810352 Z M179.945419,174.591894 C194.75757,174.070335 209.536235,176.285637 223.479501,181.117595 L223.479501,181.117595 L224.37931,181.393957 L223.887662,182.187382 C222.106596,185.087694 220.198752,187.910743 218.164131,190.65653 L218.164131,190.65653 L217.811629,191.137934 L217.255045,190.959636 C206.611208,187.558157 195.466553,185.827282 184.249662,185.833573 C182.969521,185.833573 181.711024,185.854375 180.474173,185.895977 C177.298308,185.930345 174.665914,183.538816 174.523285,180.489598 C174.380657,177.44038 176.779154,174.831512 179.945419,174.591894 Z M23.29363,132.968222 C24.8417985,132.919453 26.3411016,133.533626 27.4393959,134.66649 L27.4393959,134.66649 L27.4393959,134.684906 C29.5609067,136.89015 29.6428915,140.433535 27.6258117,142.741807 C24.578061,146.25922 21.6486696,149.890197 18.8376374,153.634738 C15.6508146,157.870366 12.5527612,162.428271 9.61449282,167.032214 L9.61449282,167.032214 L8.82444483,168.284487 L8.27407432,166.894096 C6.73378435,162.994943 5.39152559,159.014748 4.2528188,154.969882 L4.2528188,154.969882 L4.15517241,154.601566 L4.36821906,154.288498 C6.23237725,151.553756 8.11428933,148.9203 9.96069363,146.452586 C12.9315108,142.487056 16.0295642,138.644298 19.2548537,134.924311 C20.2848509,133.724404 21.7454615,133.01699 23.29363,132.968222 Z M49.862069,81.0258716 L49.862069,95.0249198 L49.5285434,95.2632795 L49.5007496,95.2357764 C31.9697412,107.58544 16.3628398,122.411331 3.17775728,139.240643 L3.17775728,139.240643 L1.60277554,141.275868 L1.32483758,139.442332 C0.591989806,134.659827 0.14958348,129.838143 0,125.003235 L0,125.003235 L0,124.700702 L0.194556568,124.47151 C14.2220198,108.064779 30.5294113,93.7089551 48.6298774,81.8326275 L48.6298774,81.8326275 L49.862069,81.0258716 Z M158.920845,111.416428 C186.488152,108.034333 214.482593,111.253135 240.497344,120.796097 L240.497344,120.796097 L241,120.983869 L241,121.958496 C241,125.213214 240.853773,128.575231 240.561318,131.937247 L240.561318,131.937247 L240.469926,132.965524 L239.482893,132.581038 C220.719679,125.193207 200.678464,121.407657 180.4528,121.430946 C165.162107,121.422658 149.947035,123.529877 135.259456,127.690019 L135.259456,127.690019 L132.965517,128.342751 L134.41865,126.491853 C137.194467,122.9538 139.42671,119.037729 141.04457,114.86786 L141.04457,114.86786 L141.190797,114.483374 L141.602061,114.393959 C147.314188,113.115878 153.088289,112.119133 158.902567,111.407486 L158.902567,111.407486 Z M49.6762965,108.034491 L50.0102153,109.173395 C50.8689577,112.464292 52.1136687,115.655425 53.7214847,118.688174 L53.7214847,118.688174 L54.0172414,119.253142 L53.4925118,119.638755 C49.3010353,122.72366 45.236766,125.972974 41.2997039,129.386696 C38.8443063,131.511426 35.0213635,131.362871 32.7609223,129.05489 C30.500481,126.746908 30.6585245,123.153486 33.1139222,121.028756 C38.1195245,116.694345 43.322298,112.599074 48.7222427,108.742943 L48.7222427,108.742943 L49.6762965,108.034491 Z M44.9057308,58.1724247 L45.3444274,58.7624352 C47.4924203,61.6496782 48.9921832,64.9691578 49.7407274,68.4929253 L49.7407274,68.4929253 L49.862069,69.0454748 L49.3860365,69.3451627 L49.3673685,69.3077017 C31.7340825,80.2677761 15.6024353,93.4908724 1.38142759,108.641733 L1.38142759,108.641733 L0,110.112077 L0,93.1328865 L0.242683226,92.8987554 C13.5994333,79.8392256 28.370538,68.3201213 44.2803548,58.5563998 L44.2803548,58.5563998 L44.9057308,58.1724247 Z M229.68142,96.2111665 C231.104938,95.5024803 232.759331,95.3746798 234.279677,95.8559548 C236.347469,96.4735702 238.409106,97.1301613 240.46459,97.8257281 L240.46459,97.8257281 L241,98.0056161 L241,110.112077 L239.938411,109.743306 C236.855186,108.639994 233.747344,107.620628 230.614886,106.685211 C227.544754,105.779452 225.795029,102.634526 226.69162,99.6336023 C227.182211,98.1512001 228.257902,96.9198527 229.68142,96.2111665 Z M154.343386,88.7354416 C174.035482,86.2882694 194.001264,86.8854032 213.501794,90.504743 C216.406657,91.0603228 218.404297,93.6703241 218.119568,96.5380608 C217.971373,98.1134285 217.146463,99.5546318 215.84813,100.506499 C214.549797,101.458365 212.898791,101.832368 211.301989,101.536337 C200.366157,99.5019544 189.256933,98.480044 178.123103,98.4842923 C170.647466,98.4887495 163.179286,98.9437409 155.761443,99.8466544 C152.07995,100.306673 148.243925,100.899389 144.36245,101.615956 L144.36245,101.615956 L143.353448,101.801732 L143.444349,100.810924 C143.553431,99.4839476 143.617061,98.1746646 143.617061,96.9361536 L143.617061,96.9361536 L143.617061,90.3455059 L144.262459,90.2305013 C147.680339,89.6200923 151.080038,89.1335344 154.343386,88.7354416 Z M150.142007,66.1247061 C180.490637,62.1739055 211.322543,65.0508653 240.456547,74.5520572 L240.456547,74.5520572 L241,74.7299679 L241,87.2586299 L239.959149,86.9028084 C219.559359,79.874576 198.163327,76.2969209 176.623833,76.3124372 C168.251234,76.3176512 159.886967,76.849277 151.578934,77.9042702 C149.359066,78.1851819 147.037876,78.5222759 144.274555,78.9810984 L144.274555,78.9810984 L143.353448,79.1309179 L143.353448,67.0798059 L144.025856,66.976805 C146.29178,66.6303472 148.290582,66.3400718 150.132796,66.1059787 L150.132796,66.1059787 Z M10.8676522,52.0133481 C17.6615229,47.4268056 26.2909989,46.5091281 33.8988774,49.5641569 L33.8988774,49.5641569 L35.3189655,50.1317083 L34.0271434,50.9555731 L34.0088197,50.9830353 C22.4571883,58.3231067 11.5216418,66.5889578 1.3101458,75.6989806 L1.3101458,75.6989806 L0,76.8706994 L0,72.4492915 C0.00182515216,64.2569511 4.07378153,56.5998907 10.8676522,52.0133481 Z M146.006737,45.4997871 C175.393039,41.6488505 205.22004,43.7568148 233.832435,51.7066947 C235.803976,52.22314 237.959773,52.8639148 240.41038,53.6194551 L240.41038,53.6194551 L241,53.8585502 L241,66.482769 L239.977378,66.1480359 C218.931529,59.259372 196.99296,55.7598367 174.925741,55.7713106 C165.75084,55.7761862 156.585015,56.3702766 147.480786,57.5501778 L147.480786,57.5501778 L145.057818,57.8944747 L143.353448,58.1431335 L143.353448,49.5357116 C143.353448,48.6175866 143.381087,47.632515 143.445576,46.5326777 L143.445576,46.5326777 L143.445576,45.8632116 L144.864349,45.6623717 Z M180.223679,22.8543133 L180.471928,22.8552733 C199.610957,23.3567536 218.624846,26.0261749 237.129285,30.8095825 L237.129285,30.8095825 L237.50535,30.9077838 L237.652107,31.2559523 C239.182763,34.8303002 240.25186,38.5756814 240.834898,42.406269 L240.834898,42.406269 L241,43.6293221 L239.825944,43.2900811 C237.908932,42.7098004 236.147848,42.2634306 234.414282,41.8170609 C216.703461,37.2185455 198.501668,34.6479153 180.178414,34.1573557 C178.104104,34.1063247 176.215334,32.9820876 175.223586,31.2081337 C174.231838,29.4341797 174.287781,27.2800148 175.370343,25.5570921 C176.452905,23.8341694 178.397618,22.8042419 180.471928,22.8552733 Z M159.907972,22.8619638 C161.642795,22.7718818 163.33307,23.4010401 164.537879,24.5853192 C165.742689,25.7695984 166.342554,27.3915565 166.180998,29.0280966 L166.180998,29.0280966 L166.199836,29.0013648 C165.921902,31.7967413 163.512976,33.9731014 160.548461,34.1071367 C155.923753,34.3388122 151.289626,34.7041466 146.683756,35.1853188 L146.683756,35.1853188 L145.431034,35.3189778 L145.826631,34.187332 C147.121829,30.50497 148.893483,26.9882918 151.101247,23.7173811 L151.101247,23.7173811 L151.317883,23.3965996 L151.713479,23.3965996 C154.444977,23.1768049 157.176474,22.998593 159.907972,22.8619638 Z M191.002112,1.43678102e-05 C204.689446,-0.0108070041 217.735715,6.09155244 226.885609,16.7844447 L226.885609,16.7844447 L228.534483,18.6982891 L226.138606,18.1241358 C207.853921,13.7649307 189.163672,11.5599682 170.413967,11.5500801 L170.413967,11.5500801 L170.413967,11.5309416 C167.781235,11.5309416 165.093845,11.5787877 162.433784,11.6649107 L162.433784,11.6649107 L159.974138,11.7414645 L161.941854,10.2199582 C169.586412,4.14406359 178.78755,0.611278052 188.360271,0.0765825521 C189.28947,1.43678102e-05 190.154901,1.43678102e-05 191.002112,1.43678102e-05 Z" id="Combined-Shape"></path>
            </g>
        </g>
    </g>
</svg>