<?xml version="1.0" encoding="UTF-8"?>
<svg width="335px" height="172px" viewBox="0 0 335 172" version="1.1" xmlns="http://www.w3.org/2000/svg" xmlns:xlink="http://www.w3.org/1999/xlink">
    <title>编组 4</title>
    <defs>
        <linearGradient x1="-2.58586775%" y1="64.1979353%" x2="100%" y2="36.8193362%" id="linearGradient-1">
            <stop stop-color="#B7A5E3" offset="0%"></stop>
            <stop stop-color="#ADA1F3" offset="17.0677922%"></stop>
            <stop stop-color="#8DD1FB" offset="52.2314946%"></stop>
            <stop stop-color="#7CCDF8" offset="80.8253373%"></stop>
            <stop stop-color="#6EACF7" offset="100%"></stop>
        </linearGradient>
        <rect id="path-2" x="0" y="0" width="335" height="172" rx="26"></rect>
        <linearGradient x1="100%" y1="100%" x2="0%" y2="-18.2553741%" id="linearGradient-4">
            <stop stop-color="#1C7BFF" offset="0%"></stop>
            <stop stop-color="#9D6FFF" offset="100%"></stop>
        </linearGradient>
    </defs>
    <g id="0817代币详情页" stroke="none" stroke-width="1" fill="none" fill-rule="evenodd">
        <g id="代币首页" transform="translate(-20.000000, -120.000000)">
            <g id="编组-4" transform="translate(20.000000, 120.000000)">
                <mask id="mask-3" fill="white">
                    <use xlink:href="#path-2"></use>
                </mask>
                <use id="矩形" fill="url(#linearGradient-1)" xlink:href="#path-2"></use>
                <circle id="椭圆形" stroke="url(#linearGradient-4)" stroke-width="20" opacity="0.696171" mask="url(#mask-3)" cx="329.5" cy="28.5" r="44.5"></circle>
                <g id="Group-2备份-3" mask="url(#mask-3)" fill="url(#linearGradient-4)" fill-rule="nonzero" opacity="0.876441592">
                    <g transform="translate(246.000000, 87.000000)" id="Combined-Shape">
                        <path d="M71.5456301,83.2760525 L71.5456301,83.2968568 L72.9655172,83.2968568 L72.2296633,83.8204324 C66.1362215,88.1742546 59.063614,90.9462529 51.6430273,91.8890436 L51.6430273,91.8890436 L50.7586207,92 L51.4046521,91.3793376 C56.8147135,86.1549838 64.0381187,83.2488036 71.5456301,83.2760525 L71.5456301,83.2760525 Z M42.4515281,88.7932682 C51.4005806,77.1796201 66.3218321,72.0455335 80.4262229,75.72698 L80.4262229,75.72698 L80.8965517,75.8501805 L80.5795153,76.2021818 C79.5761472,77.3637861 78.5274882,78.4479501 77.44399,79.4757938 L77.44399,79.4757938 L77.3325047,79.5813942 L77.1826962,79.5532341 C75.2476035,79.1910808 73.2837899,79.0084532 71.3157801,79.0076321 C61.3929526,78.9659918 52.0149359,83.5878088 45.938929,91.5142382 L45.938929,91.5142382 L45.7507975,91.7676791 L45.5766016,92 L45.4267932,92 C43.9147732,91.9753599 42.4027533,91.8803196 40.9290564,91.7113589 L40.9290564,91.7113589 L40.4482759,91.6550387 L40.7026018,91.2502372 C41.2530607,90.4019141 41.8383587,89.571191 42.4445603,88.7862282 L42.4445603,88.7862282 Z M61.5466535,67.4628797 C62.1637107,67.331722 62.8077699,67.4661794 63.3196794,67.8330264 C63.8315889,68.1998735 64.163594,68.7648881 64.2336536,69.3884508 L64.2336536,69.3884508 L64.2265733,69.406052 C64.3579972,70.5415324 63.6014047,71.5908347 62.477722,71.8314972 C53.346993,73.7876365 45.204667,78.8881277 39.4877629,86.2327979 C38.3035395,87.7476617 37.2304537,89.3452809 36.2768154,91.0132834 L36.2768154,91.0132834 L36.1670697,91.2068966 L35.9475782,91.1576132 C34.6424302,90.8689536 33.3526229,90.5239701 32.0781564,90.1226628 L32.0781564,90.1226628 L31.7241379,90.0064949 L31.897607,89.686153 C33.0738384,87.5076068 34.4309005,85.4304943 35.9546586,83.4764502 C41.7514345,76.0324401 49.8073468,70.6451791 58.9269168,68.1141241 C59.7978023,67.8700541 60.6710478,67.6529727 61.5466535,67.4628797 Z M56.5464205,60.3640337 C67.1487997,57.6015953 78.3605189,58.270408 88.5547876,62.273429 L88.5547876,62.273429 L88.8275862,62.3812454 L88.7261611,62.6525256 C88.2784916,63.8524188 87.7748635,65.0418781 87.2292663,66.19308 L87.2292663,66.19308 L87.1103541,66.4469704 L86.8480478,66.3426319 C67.5514505,58.7488134 45.530471,64.7077189 32.7639799,80.9778505 C30.9075734,83.3510199 29.2843344,85.8957789 27.916559,88.5771739 L27.916559,88.5771739 L27.7906519,88.8275864 L27.531843,88.716292 C26.3532132,88.211989 25.1850757,87.6520389 24.0519124,87.0503533 L24.0519124,87.0503533 L23.7931034,86.9147132 L23.9260053,86.6538669 C25.4305985,83.6954034 27.219092,80.8884102 29.2665622,78.2720045 C36.1166334,69.4652909 45.7109611,63.1670565 56.5464205,60.3640337 Z M22.23421,75.3565616 C22.8754534,75.2876364 23.5122499,75.524873 23.9684322,76.0026407 L23.9684322,76.0026407 L23.9582657,76.0204165 C24.6809853,76.7809759 24.7929441,77.9703702 24.2259852,78.8645348 C23.0789366,80.6939623 22.0367148,82.5934007 21.10485,84.5527715 L21.10485,84.5527715 L20.9591293,84.8620694 L20.6846321,84.6700914 C19.6476425,83.9377309 18.6208196,83.1484881 17.6346629,82.3236938 L17.6346629,82.3236938 L17.4482759,82.1672673 L17.5567192,81.9468481 C18.494382,80.0264491 19.5306341,78.1608119 20.6609101,76.3581555 C21.0152599,75.7932663 21.5929666,75.4254868 22.23421,75.3565616 Z M30.3886702,53.9310368 L30.537899,53.9867925 C32.1571267,54.5930058 33.8559598,54.9581217 35.5804448,55.0705444 L35.5804448,55.0705444 L36.4827586,55.1332696 L35.7192623,55.6211322 L35.708851,55.6211322 C29.851156,59.3763749 24.6800707,64.1149425 20.4215733,69.6297579 C18.1679375,72.5556297 16.1806433,75.6788885 14.4836545,78.9618723 L14.4836545,78.9618723 L14.2997213,79.3103456 L14.0151454,79.0280822 C13.0503638,78.0941738 12.1202865,77.1079945 11.2387953,76.0625746 L11.2387953,76.0625746 L11.1034483,75.9057617 L11.2006205,75.7245556 C12.8855516,72.6406274 14.811926,69.6960492 16.961547,66.9186358 C20.7635925,62.009745 25.2412901,57.6684808 30.260264,54.0251245 L30.260264,54.0251245 L30.3886702,53.9310368 Z M25.1676365,70.050878 C41.4787134,51.3039146 67.8967972,44.9184467 90.9969482,54.1393926 L90.9969482,54.1393926 L91.2068966,54.247634 L91.1649069,54.4885584 C91.1054215,54.8272492 91.042437,55.1484818 90.9724542,55.4976476 C90.7835007,56.4159536 90.5595557,57.3587013 90.3076177,58.290974 L90.3076177,58.290974 L90.2166401,58.6191898 L89.9017175,58.4865068 C83.3910699,55.7772084 76.4053628,54.3873272 69.3512711,54.3977753 C67.0819319,54.398901 64.8148321,54.5400002 62.5629405,54.8202659 C49.3514486,56.4304323 37.2147158,62.8935001 28.5198121,72.9489542 C28.0080875,73.5713562 27.1980823,73.8674755 26.4045281,73.7222536 C25.6109739,73.5770316 24.9589862,73.0133649 24.701898,72.2502688 C24.4448098,71.4871726 24.6231549,70.6449605 25.1676365,70.050878 Z M22.8840993,49.1724163 L23.0754827,49.4023687 C23.9098053,50.3599422 24.8429121,51.2265003 25.859241,51.9875908 L25.859241,51.9875908 L26.1724138,52.2210273 L25.8627207,52.4614321 L25.8696801,52.4509797 C21.3557877,55.960749 17.298257,60.0222736 13.7916487,64.5408997 C11.8170749,67.0838932 10.0218441,69.7615398 8.41899519,72.5543914 L8.41899519,72.5543914 L8.18237574,72.9655184 L7.914439,72.5752962 C7.09671,71.3837248 6.33117646,70.1433757 5.63523689,68.88909 L5.63523689,68.88909 L5.55172414,68.7357884 L5.64219628,68.585971 C7.07144781,66.2481431 8.62927167,63.9915996 10.3084711,61.8267649 C13.9103551,57.1859024 18.0579263,52.9967879 22.6613986,49.3501068 L22.6613986,49.3501068 L22.8840993,49.1724163 Z M68.692857,66.6491878 C74.3472882,66.4500865 79.9889361,67.295762 85.3116767,69.1403268 L85.3116767,69.1403268 L85.6551724,69.2458258 L85.4674892,69.5487102 C84.7875801,70.6558831 84.0592747,71.7335617 83.282573,72.7817458 L83.282573,72.7817458 L83.1480076,72.9655184 L82.935536,72.8974545 C78.8723283,71.5989646 74.6179372,70.9382155 70.3359706,70.9406171 C69.847286,70.9406171 69.3668641,70.9485579 68.894705,70.9644395 C67.6823415,70.9775591 66.6774443,70.0646104 66.6229969,68.9005935 C66.5685494,67.7365766 67.4841585,66.7406602 68.692857,66.6491878 Z M8.89217411,50.7596531 C9.48317617,50.7410359 10.0555243,50.9754922 10.4747901,51.4079548 L10.4747901,51.4079548 C11.2846615,52.2568207 11.3159586,53.6094821 10.545953,54.4906485 C9.38249632,55.8333954 8.26422241,57.2194944 7.19113128,58.6489457 C5.97458482,60.265866 4.79192544,62.0058129 3.67026282,63.763335 L3.67026282,63.763335 L3.36866774,64.241381 L3.15856779,63.7106093 C2.57057328,62.2221361 2.05817574,60.7027255 1.62348269,59.1586271 L1.62348269,59.1586271 L1.5862069,59.0180254 L1.66753591,58.8985139 C2.37916476,57.8545458 3.09757103,56.8492431 3.80242246,55.9072113 C4.93651035,54.3933989 6.11916973,52.9264539 7.3504006,51.506376 C7.74359452,51.0483202 8.30117204,50.7782702 8.89217411,50.7596531 Z M19.0344828,30.9310381 L19.0344828,36.2750731 L18.9071618,36.3660652 L18.8965517,36.3555661 C12.2042166,41.0699605 6.24639528,46.7296366 1.21308576,53.1541044 L1.21308576,53.1541044 L0.611847922,53.9310381 L0.505747126,53.2310977 C0.22598781,51.405411 0.0571024074,49.5647683 0,47.7190773 L0,47.7190773 L0,47.6035873 L0.074270557,47.516095 C5.4291528,41.2529447 11.6543811,35.7727132 18.5641026,31.2390113 L18.5641026,31.2390113 L19.0344828,30.9310381 Z M60.6668786,42.5324124 C71.1904977,41.2413222 81.8771726,42.4700764 91.8081147,46.1130327 L91.8081147,46.1130327 L92,46.1847134 L92,46.5567702 C92,47.7992353 91.9441788,49.0826607 91.8325365,50.3660861 L91.8325365,50.3660861 L91.7976483,50.7586231 L91.4208553,50.6118484 C84.2581347,47.7915977 76.6075466,46.3464913 68.8865462,46.3553817 C63.0494349,46.3522181 57.2411917,47.1566335 51.6343153,48.7447375 L51.6343153,48.7447375 L50.7586207,48.9939132 L51.3133436,48.2873465 C52.3729917,46.9367205 53.2251341,45.4417888 53.8427404,43.8499714 L53.8427404,43.8499714 L53.8985616,43.7031967 L54.0555586,43.6690631 C56.2361217,43.181165 58.4403427,42.8006649 60.659901,42.528999 L60.659901,42.528999 Z M18.9635655,41.2413823 L19.0910366,41.6761506 C19.4188552,42.932427 19.8940146,44.1506185 20.5077867,45.3083486 L20.5077867,45.3083486 L20.6206897,45.5240211 L20.4203779,45.6712261 C18.8203122,46.8488662 17.268807,48.0892681 15.7658621,49.3924318 C14.8285318,50.2035319 13.3691512,50.1468222 12.5062442,49.265767 C11.6433372,48.3847118 11.7036691,47.0129489 12.6409993,46.2018488 C14.5518517,44.5472189 16.5379727,42.9838788 18.5993623,41.5118287 L18.5993623,41.5118287 L18.9635655,41.2413823 Z M17.1424366,22.2069007 L17.3099059,22.4321329 C18.1298866,23.534317 18.7024102,24.8015042 18.9881615,26.1466769 L18.9881615,26.1466769 L19.0344828,26.3576086 L18.8527608,26.4720123 L18.8456345,26.4577119 C12.1142556,30.6416407 5.95611638,35.6894617 0.527349953,41.4731928 L0.527349953,41.4731928 L0,42.0344857 L0,35.5528031 L0.0926425593,35.4634253 C5.1914849,30.4780446 10.8302469,26.0807102 16.9037039,22.3534804 L16.9037039,22.3534804 L17.1424366,22.2069007 Z M87.6792143,36.7279142 C88.2226321,36.4573784 88.8541844,36.4085915 89.4345656,36.5923147 C90.22393,36.8280849 91.0109451,37.0787338 91.795611,37.3442614 L91.795611,37.3442614 L92,37.4129323 L92,42.0344857 L91.5947459,41.8937103 C90.4177472,41.4725286 89.2313512,41.0833934 88.035558,40.7263046 C86.8635576,40.3805376 86.1956126,39.179985 86.53788,38.0344042 C86.7251594,37.4685079 87.1357964,36.99845 87.6792143,36.7279142 Z M58.9194669,33.8741105 C66.4367815,32.9399203 74.058574,33.1678718 81.5027596,34.5495284 C82.6116699,34.761617 83.3742543,35.7579661 83.2655612,36.8527037 C83.2089888,37.4540889 82.8940854,38.0042578 82.3984562,38.367626 C81.9028269,38.7309943 81.2725675,38.8737671 80.6629998,38.7607594 C76.4883255,37.9841486 72.2474599,37.5940417 67.997201,37.5956635 C65.1434308,37.5973649 62.2925076,37.7710546 59.4607997,38.1157353 C58.0554165,38.291344 56.591042,38.517609 55.109317,38.7911532 L55.109317,38.7911532 L54.7241379,38.8620721 L54.7588387,38.4838381 C54.8004797,37.9772746 54.8247703,37.4774653 54.8247703,37.0046727 L54.8247703,37.0046727 L54.8247703,34.4887408 L55.0711461,34.4448387 C56.3758969,34.2118195 57.6737075,34.0260795 58.9194669,33.8741105 Z M57.3156208,25.2426264 C68.9009902,23.734437 80.6708465,24.8326955 91.7925407,28.4597065 L91.7925407,28.4597065 L92,28.5276226 L92,33.3103483 L91.6026627,33.1745161 C83.815191,30.4915394 75.647411,29.1257955 67.4248656,29.1317188 C64.2286868,29.1337092 61.0356887,29.3366535 57.8641573,29.7393894 C57.0167388,29.8466254 56.1306415,29.9753087 55.0757638,30.1504608 L55.0757638,30.1504608 L54.7241379,30.2076533 L54.7241379,25.6072288 L54.9808248,25.567909 C55.8458246,25.4356512 56.6088528,25.3248407 57.3121046,25.2354773 L57.3121046,25.2354773 Z M4.14864731,19.855718 C6.7421581,18.1048386 10.0363979,17.7545219 12.9406503,18.920757 L12.9406503,18.920757 L13.4827586,19.1374156 L12.9896149,19.45192 L12.98262,19.4624035 C8.57286856,22.2644225 4.39830309,25.4198511 0.500138647,28.8975361 L0.500138647,28.8975361 L0,29.3448313 L0,27.6569909 C0.000696738583,24.5296245 1.55513652,21.6065973 4.14864731,19.855718 Z M55.7370116,17.3692133 C66.9550191,15.8991462 78.3412601,16.7038463 89.2638343,19.7386552 C90.0164557,19.9358045 90.8394156,20.1804156 91.774917,20.4688376 L91.774917,20.4688376 L92,20.5601104 L92,25.3793143 L91.6096216,25.2515324 C83.5755213,22.621835 75.200632,21.2859128 66.7766315,21.2902928 C63.2741794,21.2921541 59.7751925,21.5189438 56.2997192,21.9693625 L56.2997192,21.9693625 L55.3747686,22.1007953 L54.7241379,22.195719 L54.7241379,18.9098982 C54.7241379,18.5594107 54.7346887,18.1833667 54.7593072,17.7635118 L54.7593072,17.7635118 L54.7593072,17.507948 L55.3009132,17.4312788 Z M68.8938479,8.72483462 C76.2000333,8.91627107 83.4584476,9.93530326 90.5223828,11.7613344 L90.5223828,11.7613344 L90.6659427,11.798822 L90.7219661,11.9317328 C91.306283,13.2962142 91.7144029,14.7259863 91.9369737,16.1882852 L91.9369737,16.1882852 L92,16.6551769 L91.5518128,16.5256741 C90.8200071,16.3041562 90.1477263,16.1337578 89.4859498,15.9633593 C82.7249726,14.2079095 75.7765705,13.2265901 68.7818011,13.0393225 C67.9899484,13.0198418 67.2689242,12.5906724 66.8903315,11.9134784 C66.5117388,11.2362844 66.5330948,10.4139476 66.9463549,9.75623433 C67.359615,9.09852109 68.1019952,8.70535374 68.8938479,8.72483462 Z M61.0437072,8.72738869 C61.7059633,8.69300051 62.3512135,8.93317712 62.8111406,9.38526709 C63.2710678,9.83735707 63.5000621,10.4565278 63.4383891,11.0812651 L63.4383891,11.0812651 L63.4455804,11.0710604 C63.3394812,12.1381751 62.4198913,12.9689848 61.2882092,13.0201518 C59.5227605,13.1085922 57.7537161,13.248056 55.9954587,13.43174 L55.9954587,13.43174 L55.5172414,13.4827633 L55.6682574,13.0507658 C56.1626898,11.6450508 56.8390058,10.3025844 57.6818038,9.05393802 L57.6818038,9.05393802 L57.764503,8.93148202 L57.915519,8.93148202 C58.9582484,8.84757698 60.0009778,8.77954587 61.0437072,8.72738869 Z M72.9136694,5.48480715e-06 C78.1387097,-0.00412549533 83.1190279,2.32540591 86.6119338,6.40733987 L86.6119338,6.40733987 L87.2413793,7.13793609 L86.3267706,6.91875723 C79.3467249,5.25466233 72.2118582,4.41293391 65.0542945,4.4091592 L65.0542945,4.4091592 C64.0492683,4.40185323 63.0233764,4.42011814 62.0079174,4.45299497 L62.0079174,4.45299497 L61.0689655,4.48221882 L61.820127,3.90139482 C64.7383813,1.58196618 68.250849,0.233350957 71.9051655,0.0292348332 C72.2598807,5.48480715e-06 72.5902526,5.48480715e-06 72.9136694,5.48480715e-06 Z"></path>
                    </g>
                </g>
                <circle id="椭圆形备份" stroke="url(#linearGradient-4)" stroke-width="20" opacity="0.301884" mask="url(#mask-3)" cx="22" cy="161" r="62.5"></circle>
            </g>
        </g>
    </g>
</svg>