<?xml version="1.0" encoding="UTF-8"?>
<svg width="127px" height="127px" viewBox="0 0 127 127" version="1.1" xmlns="http://www.w3.org/2000/svg" xmlns:xlink="http://www.w3.org/1999/xlink">
    <title>编组 11</title>
    <defs>
        <linearGradient x1="100%" y1="100%" x2="0%" y2="-18.2553741%" id="linearGradient-1">
            <stop stop-color="#1C7BFF" offset="0%"></stop>
            <stop stop-color="#9D6FFF" offset="100%"></stop>
        </linearGradient>
        <linearGradient x1="69.7939966%" y1="100%" x2="69.7939966%" y2="-10.9788093%" id="linearGradient-2">
            <stop stop-color="#1C7BFF" offset="0%"></stop>
            <stop stop-color="#9D6FFF" offset="100%"></stop>
        </linearGradient>
        <linearGradient x1="50%" y1="100%" x2="50%" y2="-11.0105617%" id="linearGradient-3">
            <stop stop-color="#1C7BFF" stop-opacity="0" offset="0%"></stop>
            <stop stop-color="#9D6FFF" offset="100%"></stop>
        </linearGradient>
        <linearGradient x1="100%" y1="50.053749%" x2="0%" y2="49.9266268%" id="linearGradient-4">
            <stop stop-color="#1C7BFF" offset="0%"></stop>
            <stop stop-color="#9D6FFF" offset="100%"></stop>
        </linearGradient>
    </defs>
    <g id="0716Account-Recovery蓝湖" stroke="none" stroke-width="1" fill="none" fill-rule="evenodd">
        <g id="login_processing-资产恢复" transform="translate(-125.000000, -259.000000)">
            <g id="编组-11" transform="translate(125.000000, 259.000000)">
                <rect id="矩形" fill="#D8D8D8" opacity="0" x="0" y="0" width="126" height="126"></rect>
                <path d="M2,20 L2,20 L2,9.4738417 C2,5.34615291 5.30440889,2 9.38060382,2 L20,2 L20,2" id="路径" stroke="url(#linearGradient-1)" stroke-width="4"></path>
                <g id="编组-7" transform="translate(63.194124, 115.084000) scale(1, -1) translate(-63.194124, -115.084000) translate(2.000000, 106.084000)" stroke="url(#linearGradient-1)" stroke-width="4">
                    <path d="M0,18 L0,18 L0,7.4738417 C0,3.34615291 3.30440889,0 7.38060382,0 L18,0 L18,0" id="路径备份-2"></path>
                    <path d="M104.388248,18 L104.388248,13.515695 L104.388248,7.4738417 C104.388248,3.34615291 107.692657,0 111.768852,0 L122.388248,0" id="路径备份-3" transform="translate(113.388248, 9.000000) scale(-1, 1) translate(-113.388248, -9.000000) "></path>
                </g>
                <path d="M106.388248,20 L106.388248,20 L106.388248,9.4738417 C106.388248,5.34615291 109.692657,2 113.768852,2 L124.388248,2 L124.388248,2" id="路径备份" stroke="url(#linearGradient-1)" stroke-width="4" transform="translate(115.388248, 11.000000) scale(-1, 1) translate(-115.388248, -11.000000) "></path>
                <g id="编组-17备份" transform="translate(17.000000, 17.000000)">
                    <rect id="矩形" x="0" y="0" width="92" height="92"></rect>
                    <g id="钱包备份" transform="translate(7.945117, 11.966900)" fill-rule="nonzero">
                        <g id="编组-19">
                            <path d="M13.0434777,68.0662 C5.83946464,68.0662 0,62.7118 0,56.1062 L0,11.96 C0,5.3544 5.83946464,0 13.0434777,0 L63.0662777,0 C70.2702908,0 76.1097651,5.3544 76.1097651,11.96 L76.1097651,56.1108 C76.1147722,62.7118 70.2753075,68.0662 63.0712945,68.0662 L13.0434777,68.0662 Z" id="路径" fill="url(#linearGradient-2)"></path>
                            <path d="M76.1097651,17.3742 L48.9075297,17.3742 C40.115286,17.3742 32.9847764,24.8354 32.9847764,34.0354 C32.9847764,43.2354 40.115286,50.6966 48.9075297,50.6966 L76.1097651,50.6966 L76.1097651,17.3742 Z" id="路径" fill="#0C61FF"></path>
                            <path d="M43.5949757,34.0354 C43.5949757,37.9361876 46.7571888,41.0984007 50.6579764,41.0984007 C54.558764,41.0984007 57.7209771,37.9361876 57.7209771,34.0354 C57.7209771,30.1346124 54.558764,26.9723993 50.6579764,26.9723993 C46.7571888,26.9723993 43.5949757,30.1346124 43.5949757,34.0354 Z" id="路径" fill="#FFFFFF" opacity="0.896579"></path>
                        </g>
                    </g>
                </g>
                <g id="编组-10" transform="translate(2.000000, 61.000000)">
                    <rect id="矩形备份-3" fill="url(#linearGradient-3)" opacity="0.495256696" x="0" y="0" width="122" height="65"></rect>
                    <rect id="矩形备份-4" fill="url(#linearGradient-4)" opacity="0.371954055" x="0" y="0" width="122" height="4" rx="1"></rect>
                </g>
            </g>
        </g>
    </g>
</svg>