<?xml version="1.0" encoding="UTF-8"?>
<svg width="16px" height="16px" viewBox="0 0 16 16" version="1.1" xmlns="http://www.w3.org/2000/svg" xmlns:xlink="http://www.w3.org/1999/xlink">
    <title>取消</title>
    <g id="0708login蓝湖" stroke="none" stroke-width="1" fill="none" fill-rule="evenodd">
        <g id="login_input备份" transform="translate(-317.000000, -267.000000)" fill-rule="nonzero">
            <g id="取消" transform="translate(317.000000, 267.000000)">
                <rect id="矩形" fill="#3179FF" opacity="0" x="0" y="0" width="16" height="16"></rect>
                <path d="M8,16 C3.58171428,16 0,12.4182857 0,8 C0,3.58171428 3.58171428,0 8,0 C12.4182857,0 16,3.58171428 16,8 C16,12.4182857 12.4182857,16 8,16 Z" id="路径" fill="#E9F0FF"></path>
                <path d="M11.5851429,11.6422857 C11.4423639,11.7853077 11.2485681,11.8656771 11.0464762,11.8656771 C10.8443843,11.8656771 10.6505885,11.7853077 10.5078095,11.6422857 L8.08342858,9.21828572 L5.65904762,11.6422857 C5.36155024,11.9398883 4.87912639,11.9399736 4.5815238,11.6424762 C4.28392122,11.3449788 4.28383594,10.862555 4.58133333,10.5649524 L7.00571428,8.14057142 L4.58133333,5.71619047 C4.28383594,5.41858788 4.28392123,4.93616404 4.58152381,4.63866666 C4.8791264,4.34116927 5.36155024,4.34125456 5.65904762,4.63885714 L8.08342858,7.06323809 L10.5078095,4.63885714 C10.6991043,4.4407948 10.9823832,4.36136151 11.2487677,4.43108754 C11.5151521,4.50081356 11.7231864,4.7088479 11.7929125,4.97523235 C11.8626385,5.24161679 11.7832052,5.52489567 11.5851429,5.71619047 L9.16076191,8.14057142 L11.5851429,10.5649524 C11.8825767,10.8624761 11.8825767,11.344762 11.5851429,11.6422857 Z" id="形状" fill="#3179FF"></path>
            </g>
        </g>
    </g>
</svg>