<?xml version="1.0" encoding="UTF-8"?>
<svg width="22px" height="22px" viewBox="0 0 22 22" version="1.1" xmlns="http://www.w3.org/2000/svg" xmlns:xlink="http://www.w3.org/1999/xlink">
    <title>编组 7</title>
    <g id="0708login蓝湖" stroke="none" stroke-width="1" fill="none" fill-rule="evenodd">
        <g id="login_input-" transform="translate(-20.000000, -56.000000)" fill-rule="nonzero">
            <g id="编组-7" transform="translate(20.000000, 56.000000)">
                <rect id="矩形" opacity="0.128069196" x="0" y="0" width="22" height="22"></rect>
                <g id="关闭" transform="translate(4.000000, 4.000000)">
                    <rect id="矩形" fill="#000000" opacity="0" x="3.41796835e-09" y="3.41796835e-09" width="14" height="14"></rect>
                    <path d="M8.5,7 L13.7,1.8 C14.1,1.4 14.1,0.700000003 13.7,0.300000001 C13.3,-0.1 12.6,-0.1 12.2,0.300000001 L7,5.5 L1.8,0.300000001 C1.4,-0.1 0.700000003,-0.1 0.300000001,0.300000001 C-0.1,0.700000003 -0.1,1.4 0.300000001,1.8 L5.5,7 L0.300000001,12.2 C-0.1,12.6 -0.1,13.3 0.300000001,13.7 C0.700000003,14.1 1.4,14.1 1.8,13.7 L7,8.5 L12.2,13.7 C12.6,14.1 13.3,14.1 13.7,13.7 C14.1,13.3 14.1,12.6 13.7,12.2 L8.5,7 Z" id="路径" fill="#3D3D3D"></path>
                </g>
            </g>
        </g>
    </g>
</svg>