<?xml version="1.0" encoding="UTF-8"?>
<svg width="142px" height="109px" viewBox="0 0 142 109" version="1.1" xmlns="http://www.w3.org/2000/svg" xmlns:xlink="http://www.w3.org/1999/xlink">
    <title>编组 2</title>
    <defs>
        <linearGradient x1="53.7275733%" y1="100%" x2="53.7275733%" y2="0%" id="linearGradient-1">
            <stop stop-color="#006BFF" offset="0%"></stop>
            <stop stop-color="#9D6FFF" offset="100%"></stop>
        </linearGradient>
        <linearGradient x1="100%" y1="75.1069845%" x2="-14.9969966%" y2="27.6217191%" id="linearGradient-2">
            <stop stop-color="#1C7BFF" offset="0%"></stop>
            <stop stop-color="#9D6FFF" offset="100%"></stop>
        </linearGradient>
        <linearGradient x1="100%" y1="75.1069845%" x2="0%" y2="15.7262676%" id="linearGradient-3">
            <stop stop-color="#1C7BFF" offset="0%"></stop>
            <stop stop-color="#9D6FFF" offset="100%"></stop>
        </linearGradient>
        <linearGradient x1="184.37843%" y1="69.5874319%" x2="19.6387531%" y2="69.5874319%" id="linearGradient-4">
            <stop stop-color="#1C7BFF" offset="0%"></stop>
            <stop stop-color="#9D6FFF" offset="100%"></stop>
        </linearGradient>
        <linearGradient x1="100%" y1="100%" x2="0%" y2="0%" id="linearGradient-5">
            <stop stop-color="#0FDCDF" offset="0%"></stop>
            <stop stop-color="#0FDF9C" offset="100%"></stop>
        </linearGradient>
    </defs>
    <g id="0716Account-Recovery蓝湖" stroke="none" stroke-width="1" fill="none" fill-rule="evenodd">
        <g id="login_processing备份-10" transform="translate(-117.000000, -186.000000)">
            <g id="编组-2" transform="translate(117.000000, 186.000000)">
                <rect id="矩形" x="0" y="0" width="142" height="109"></rect>
                <g id="编组-15" transform="translate(20.000000, 8.000000)">
                    <g id="编组-11" fill-rule="nonzero">
                        <path d="M4.14499306,36.0713267 L4.14499306,81.4520735 C4.14499306,83.5121691 5.81503052,85.1822066 7.87512612,85.1822066 L94.172857,85.1822066 C96.2329526,85.1822066 97.9029901,83.5121691 97.9029901,81.4520735 L97.9029901,38.013961 C97.9029901,36.8588903 97.3678776,35.7689834 96.4539662,35.0626166 L53.3033045,1.71124926 C51.9913399,0.697225106 50.1674938,0.670993198 48.826909,1.64686642 L5.6798398,33.0555995 C4.71546627,33.7576113 4.14499306,34.8784994 4.14499306,36.0713267 Z" id="路径-3" fill="url(#linearGradient-1)" opacity="0.655064174"></path>
                        <g id="编组-10" transform="translate(0.000000, 34.071196)">
                            <path d="M25.7355377,11.4165434 L46.3732186,40.8919084 C47.3578657,42.2982114 47.0160461,44.2364594 45.6097431,45.2211065 C45.0872084,45.5869681 44.4647668,45.7832139 43.8268818,45.7832139 L2.23132741,45.7832139 C0.514581078,45.7832139 -0.877116803,44.391516 -0.877116803,42.6747697 C-0.877116803,42.02919 -0.676113082,41.3996272 -0.302012604,40.8734885 L20.6558609,11.3981235 C21.650681,9.99899845 23.591357,9.67124453 24.9904821,10.6660646 C25.2798761,10.8718326 25.531874,11.1256646 25.7355377,11.4165434 Z" id="三角形" fill="url(#linearGradient-2)" opacity="0.634951637" transform="translate(23.002487, 26.795463) rotate(-270.000000) translate(-23.002487, -26.795463) "></path>
                            <path d="M81.6875336,11.7544218 L102.325215,41.2297868 C103.309862,42.6360898 102.968042,44.5743378 101.561739,45.5589849 C101.039204,45.9248465 100.416763,46.1210923 99.7788777,46.1210923 L58.1833233,46.1210923 C56.466577,46.1210923 55.0748791,44.7293944 55.0748791,43.0126481 C55.0748791,42.3670684 55.2758828,41.7375056 55.6499833,41.2113669 L76.6078568,11.7360019 C77.6026769,10.3368769 79.5433529,10.0091229 80.942478,11.003943 C81.231872,11.209711 81.4838699,11.463543 81.6875336,11.7544218 Z" id="三角形备份-2" fill="url(#linearGradient-3)" opacity="0.634951637" transform="translate(78.954483, 27.133341) scale(-1, 1) rotate(-270.000000) translate(-78.954483, -27.133341) "></path>
                            <path d="M53.2467688,14.7660668 L94.5645629,45.8435785 C95.9365375,46.8755203 96.2121885,48.8242795 95.1802468,50.1962541 C94.5930313,50.9769617 93.6729635,51.4362025 92.6960671,51.4362025 L9.41943556,51.4362025 C7.70268923,51.4362025 6.31099135,50.0445046 6.31099135,48.3277583 C6.31099135,47.3427869 6.77781456,46.4161013 7.56932342,45.829857 L49.5281609,14.7523453 C50.6340663,13.9332381 52.1469384,13.9388205 53.2467688,14.7660668 Z" id="三角形备份" fill="url(#linearGradient-4)"></path>
                        </g>
                    </g>
                    <g id="编组-15备份" transform="translate(72.000000, 55.000000)">
                        <circle id="椭圆形" fill="url(#linearGradient-5)" cx="20" cy="20" r="20"></circle>
                        <g id="正确" transform="translate(8.000000, 11.000000)" fill="#FFFFFF" fill-rule="nonzero">
                            <g id="编组-14">
                                <path d="M23.6988965,3.76422852 L9.9831543,16.9899707 C9.80632215,17.1670213 9.6005853,17.3126118 9.37479492,17.4204785 C8.5134668,18.0358691 7.30924805,17.9573926 6.5359668,17.1839941 L0.645966797,11.293877 C-0.215322266,10.432627 -0.215322266,9.03661133 0.645966797,8.17571289 C1.50678711,7.31438477 2.90288086,7.31438477 3.76413086,8.17571289 L8.1862793,12.597666 L20.5806543,0.645791016 C21.4418262,-0.215263672 22.837998,-0.215263672 23.6988184,0.645791016 C24.5601465,1.50692383 24.5601465,2.9030957 23.6988965,3.76418945 L23.6988965,3.76422852 Z" id="形状"></path>
                            </g>
                        </g>
                    </g>
                </g>
            </g>
        </g>
    </g>
</svg>