<?xml version="1.0" encoding="UTF-8"?>
<svg width="30px" height="20px" viewBox="0 0 30 20" version="1.1" xmlns="http://www.w3.org/2000/svg" xmlns:xlink="http://www.w3.org/1999/xlink">
    <title>编组 7</title>
    <g id="0708login蓝湖" stroke="none" stroke-width="1" fill="none" fill-rule="evenodd">
        <g id="login_input备份" transform="translate(-304.000000, -393.000000)">
            <g id="编组" transform="translate(20.000000, 343.000000)">
                <g id="编组-7" transform="translate(285.000000, 50.000000)">
                    <rect id="矩形" x="0" y="0" width="28" height="20"></rect>
                    <g id="闭眼" transform="translate(0.000000, 6.000000)" fill="#287AFF" fill-rule="nonzero" stroke="#287AFF" stroke-width="0.2">
                        <path d="M11.8637737,0.238690357 C10.1092676,2.41404604 8.35622689,3.46949435 6.60080504,3.46949435 C4.83860619,3.46949435 3.0130334,2.40674189 1.12701722,0.222256041 C0.977623691,0.0491797493 0.746961013,-0.0312917304 0.52191759,0.0111544299 C0.296874166,0.0536005902 0.111639448,0.212515809 0.0359895609,0.42803826 C-0.039660326,0.643560711 0.00576763653,0.882947406 0.155161174,1.05602369 C2.26298618,3.49743268 4.41074042,4.74771896 6.60062187,4.74771896 C8.79782978,4.74771896 10.8864228,3.49031116 12.8629208,1.03958938 C13.0800039,0.76424535 13.0343788,0.366010474 12.760608,0.146560526 C12.4868372,-0.0728894218 12.0869053,-0.0318052934 11.8637737,0.238690357 L11.8637737,0.238690357 Z M2.00417868,2.83184287 L0.783039531,4.24044638 C0.676049415,4.36384397 0.643219541,4.53477264 0.696916606,4.68884522 C0.75061367,4.84291779 0.882679812,4.95672698 1.04336699,4.98740197 C1.20405417,5.01807695 1.36895018,4.96095747 1.4759403,4.83755988 L2.69707943,3.42895637 C2.86247181,3.23820023 2.8414377,2.94989343 2.65009845,2.78500509 C2.45875919,2.62011676 2.16957107,2.64108674 2.00417868,2.83184287 L2.00417868,2.83184287 Z M4.47063431,4.48476989 L3.98214201,6.43260158 C3.92079004,6.67721116 4.06995585,6.92509043 4.31531317,6.98625543 C4.56067049,7.04742043 4.8093075,6.89870923 4.87065948,6.65409965 L5.35915178,4.70626795 C5.39883954,4.5480333 5.35083732,4.3807098 5.23322707,4.26732661 C5.11561682,4.15394341 4.94626635,4.11172612 4.78896834,4.15657758 C4.63167032,4.20142904 4.51032207,4.32653524 4.47063431,4.48476989 L4.47063431,4.48476989 Z M8.01646191,4.56438503 L8.70331833,6.51203411 C8.79076358,6.74473747 9.04884345,6.86496747 9.28399155,6.7825486 C9.51913966,6.70012973 9.64497103,6.44533972 9.56710897,6.20927748 L8.88025255,4.26162839 C8.7928073,4.02892504 8.53472744,3.90869504 8.29957934,3.99111391 C8.06443123,4.07353278 7.93859986,4.32832279 8.01646191,4.56438503 L8.01646191,4.56438503 Z M10.5089265,2.90524948 L11.921836,4.31403561 C12.1006823,4.49233687 12.3906495,4.49233686 12.5694958,4.31403559 C12.7483421,4.13573432 12.7483421,3.84665085 12.5694958,3.66834957 L11.1565863,2.25974606 C10.97774,2.08144479 10.6877728,2.08144479 10.5089265,2.25974606 C10.3300802,2.43804734 10.3300802,2.72713082 10.5089265,2.9054321 L10.5089265,2.90524948 Z" id="形状"></path>
                    </g>
                    <g id="闭眼备份" transform="translate(15.000000, 6.000000)" fill="#287AFF" fill-rule="nonzero" stroke="#287AFF" stroke-width="0.2">
                        <path d="M11.8637737,0.238690357 C10.1092676,2.41404604 8.35622689,3.46949435 6.60080504,3.46949435 C4.83860619,3.46949435 3.0130334,2.40674189 1.12701722,0.222256041 C0.977623691,0.0491797493 0.746961013,-0.0312917304 0.52191759,0.0111544299 C0.296874166,0.0536005902 0.111639448,0.212515809 0.0359895609,0.42803826 C-0.039660326,0.643560711 0.00576763653,0.882947406 0.155161174,1.05602369 C2.26298618,3.49743268 4.41074042,4.74771896 6.60062187,4.74771896 C8.79782978,4.74771896 10.8864228,3.49031116 12.8629208,1.03958938 C13.0800039,0.76424535 13.0343788,0.366010474 12.760608,0.146560526 C12.4868372,-0.0728894218 12.0869053,-0.0318052934 11.8637737,0.238690357 L11.8637737,0.238690357 Z M2.00417868,2.83184287 L0.783039531,4.24044638 C0.676049415,4.36384397 0.643219541,4.53477264 0.696916606,4.68884522 C0.75061367,4.84291779 0.882679812,4.95672698 1.04336699,4.98740197 C1.20405417,5.01807695 1.36895018,4.96095747 1.4759403,4.83755988 L2.69707943,3.42895637 C2.86247181,3.23820023 2.8414377,2.94989343 2.65009845,2.78500509 C2.45875919,2.62011676 2.16957107,2.64108674 2.00417868,2.83184287 L2.00417868,2.83184287 Z M4.47063431,4.48476989 L3.98214201,6.43260158 C3.92079004,6.67721116 4.06995585,6.92509043 4.31531317,6.98625543 C4.56067049,7.04742043 4.8093075,6.89870923 4.87065948,6.65409965 L5.35915178,4.70626795 C5.39883954,4.5480333 5.35083732,4.3807098 5.23322707,4.26732661 C5.11561682,4.15394341 4.94626635,4.11172612 4.78896834,4.15657758 C4.63167032,4.20142904 4.51032207,4.32653524 4.47063431,4.48476989 L4.47063431,4.48476989 Z M8.01646191,4.56438503 L8.70331833,6.51203411 C8.79076358,6.74473747 9.04884345,6.86496747 9.28399155,6.7825486 C9.51913966,6.70012973 9.64497103,6.44533972 9.56710897,6.20927748 L8.88025255,4.26162839 C8.7928073,4.02892504 8.53472744,3.90869504 8.29957934,3.99111391 C8.06443123,4.07353278 7.93859986,4.32832279 8.01646191,4.56438503 L8.01646191,4.56438503 Z M10.5089265,2.90524948 L11.921836,4.31403561 C12.1006823,4.49233687 12.3906495,4.49233686 12.5694958,4.31403559 C12.7483421,4.13573432 12.7483421,3.84665085 12.5694958,3.66834957 L11.1565863,2.25974606 C10.97774,2.08144479 10.6877728,2.08144479 10.5089265,2.25974606 C10.3300802,2.43804734 10.3300802,2.72713082 10.5089265,2.9054321 L10.5089265,2.90524948 Z" id="形状"></path>
                    </g>
                </g>
            </g>
        </g>
    </g>
</svg>