<?xml version="1.0" encoding="UTF-8"?>
<svg width="22px" height="22px" viewBox="0 0 22 22" version="1.1" xmlns="http://www.w3.org/2000/svg" xmlns:xlink="http://www.w3.org/1999/xlink">
    <title>good备份</title>
    <g id="0708login蓝湖" stroke="none" stroke-width="1" fill="none" fill-rule="evenodd">
        <g id="login_validation备份-3" transform="translate(-84.000000, -654.000000)" fill-rule="nonzero">
            <g id="good备份" transform="translate(84.000000, 654.000000)">
                <rect id="矩形" fill="#000000" opacity="0" x="0" y="0" width="22" height="22"></rect>
                <path d="M7.33333333,21.0833333 C6.325,21.0833333 5.5,20.35 5.5,19.3416667 L5.5,9.16666667 L9.25833333,1.46666667 C9.35,1.1 9.71666665,0.916666674 10.0833333,0.916666674 C12.1,0.916666674 13.75,2.56666667 13.75,4.58333333 L13.75,7.33333333 L18.0583333,7.33333333 C19.6166667,7.33333333 20.8083333,8.525 20.8083333,10.0833333 L20.8083333,10.5416667 L19.525,18.7916667 C19.3416667,20.1666667 18.15,21.0833333 16.775,21.0833333 L7.33333333,21.0833333 Z M0.916666674,19.25 L0.916666674,11 C0.916666674,9.99166667 1.74166667,9.16666667 2.75,9.16666667 C3.75833333,9.16666667 4.58333333,9.99166667 4.58333333,11 L4.58333333,19.25 C4.58333333,20.2583333 3.75833333,21.0833333 2.75,21.0833333 C1.74166667,21.0833333 0.916666674,20.2583333 0.916666674,19.25 Z" id="形状" fill="#FFFFFF"></path>
            </g>
        </g>
    </g>
</svg>