<?xml version="1.0" encoding="UTF-8"?>
<svg width="16px" height="16px" viewBox="0 0 16 16" version="1.1" xmlns="http://www.w3.org/2000/svg" xmlns:xlink="http://www.w3.org/1999/xlink">
    <title>提示</title>
    <g id="0708signup蓝湖" stroke="none" stroke-width="1" fill="none" fill-rule="evenodd">
        <g id="signup_input备份-" transform="translate(-221.000000, -356.000000)" fill-rule="nonzero">
            <g id="提示" transform="translate(221.000000, 356.000000)">
                <rect id="矩形" fill="#000000" opacity="0" x="0" y="0" width="16" height="16"></rect>
                <path d="M7.99125,0.35859375 C3.76625,0.35859375 0.34125,3.77859375 0.34125,7.9975 C0.34125,10.7265625 1.799375,13.2482812 4.16625,14.6129688 C6.53328125,15.9775 9.449375,15.9775 11.81625,14.6129688 C14.1832813,13.2484375 15.64125,10.7267187 15.64125,7.9975 C15.6414062,3.77875 12.21625,0.35859375 7.99125,0.35859375 Z M7.99125,12.2414063 C7.521875,12.2414063 7.14125,11.8614062 7.14125,11.3926562 C7.14125,11.0895313 7.30328125,10.8092187 7.56625,10.6576562 C7.82921875,10.5060937 8.15328125,10.5060937 8.41625,10.6576562 C8.67921875,10.8092187 8.84125,11.0895313 8.84125,11.3926562 C8.84125,11.86125 8.46078125,12.2414063 7.99125,12.2414063 L7.99125,12.2414063 Z M8.84125,8.84625 C8.84125,9.35546875 8.50125,9.695 7.99125,9.695 C7.48125,9.695 7.14125,9.35546875 7.14125,8.84625 L7.14125,4.6025 C7.14125,4.09328125 7.48125,3.75375 7.99125,3.75375 C8.50125,3.75375 8.84125,4.09328125 8.84125,4.6025 L8.84125,8.84625 Z" id="形状" fill="#3179FF"></path>
            </g>
        </g>
    </g>
</svg>