<?xml version="1.0" encoding="UTF-8"?>
<svg width="22px" height="22px" viewBox="0 0 22 22" version="1.1" xmlns="http://www.w3.org/2000/svg" xmlns:xlink="http://www.w3.org/1999/xlink">
    <title>编组 7</title>
    <g id="0708signup蓝湖" stroke="none" stroke-width="1" fill="none" fill-rule="evenodd">
        <g id="signup_判定条件不通过键盘呼出" transform="translate(-20.000000, -458.000000)">
            <g id="编组-7" transform="translate(20.000000, 458.000000)">
                <rect id="矩形" fill="#FFDED9" x="0" y="0" width="22" height="22" rx="4.4"></rect>
                <g id="错误" transform="translate(5.500000, 5.500000)" fill-rule="nonzero">
                    <rect id="矩形" fill="#000000" opacity="0" x="0" y="0" width="11" height="11"></rect>
                    <path d="M9.526,8.019 C9.73866667,8.239 9.8945,8.44066667 9.9935,8.624 C10.0925,8.80733333 10.076,9.01633333 9.944,9.251 C9.91466667,9.295 9.87433333,9.34816667 9.823,9.4105 C9.77166667,9.47283333 9.7185,9.53333333 9.6635,9.592 C9.6085,9.65066667 9.5535,9.70383333 9.4985,9.7515 C9.4435,9.79916667 9.39766667,9.834 9.361,9.856 C9.17766667,9.966 8.96133333,9.99533333 8.712,9.944 C8.46266667,9.89266667 8.239,9.768 8.041,9.57 L7.579,9.108 L6.963,8.492 L6.237,7.766 L5.445,6.974 L4.037,8.382 C3.60433333,8.81466667 3.25233333,9.17033333 2.981,9.449 C2.70233333,9.72766667 2.4255,9.9 2.1505,9.966 C1.8755,10.032 1.63166667,9.96966667 1.419,9.779 L1.342,9.702 L1.221,9.581 L1.1,9.46 C1.056,9.416 1.03033333,9.38666667 1.023,9.372 C0.942333333,9.26933333 0.894666667,9.16483333 0.88,9.0585 C0.865333333,8.95216667 0.8745,8.84766667 0.9075,8.745 C0.9405,8.64233333 0.99,8.54333333 1.056,8.448 C1.122,8.35266667 1.19533333,8.26466667 1.276,8.184 C1.342,8.12533333 1.45933333,8.01533333 1.628,7.854 L2.222,7.238 C2.464,7.00333333 2.7335,6.73933333 3.0305,6.446 C3.3275,6.15266667 3.63733333,5.84466667 3.96,5.522 C3.608,5.17 3.2725,4.83633333 2.9535,4.521 C2.6345,4.20566667 2.3485,3.92333333 2.0955,3.674 C1.8425,3.42466667 1.63533333,3.22116667 1.474,3.0635 C1.31266667,2.90583333 1.21366667,2.80866667 1.177,2.772 C0.986333333,2.58133333 0.889166667,2.3925 0.8855,2.2055 C0.881833333,2.0185 0.946,1.82966667 1.078,1.639 C1.13666667,1.56566667 1.221,1.4795 1.331,1.3805 C1.441,1.2815 1.518,1.21733333 1.562,1.188 C1.782,1.04133333 1.98,0.977166667 2.156,0.9955 C2.332,1.01383333 2.508,1.11466667 2.684,1.298 L3.025,1.639 C3.19366667,1.80766667 3.40266667,2.013 3.652,2.255 C3.90133333,2.497 4.18183333,2.77016667 4.4935,3.0745 C4.80516667,3.37883333 5.12966667,3.696 5.467,4.026 C5.74566667,3.74733333 6.01883333,3.476 6.2865,3.212 C6.55416667,2.948 6.8035,2.7005 7.0345,2.4695 C7.2655,2.2385 7.4745,2.03133333 7.6615,1.848 C7.8485,1.66466667 8.00433333,1.51066667 8.129,1.386 C8.305,1.21733333 8.49566667,1.1055 8.701,1.0505 C8.90633333,0.9955 9.10433333,1.04133333 9.295,1.188 C9.30233333,1.19533333 9.32616667,1.21366667 9.3665,1.243 C9.40683333,1.27233333 9.44716667,1.30533333 9.4875,1.342 C9.52783333,1.37866667 9.56633333,1.4135 9.603,1.4465 C9.63966667,1.4795 9.66533333,1.49966667 9.68,1.507 C9.878,1.69766667 9.97516667,1.90483333 9.9715,2.1285 C9.96783333,2.35216667 9.87066667,2.55933333 9.68,2.75 C9.548,2.882 9.38483333,3.047 9.1905,3.245 C8.99616667,3.443 8.77983333,3.65933333 8.5415,3.894 C8.30316667,4.12866667 8.052,4.378 7.788,4.642 L6.952,5.478 C7.22333333,5.742 7.48916667,6.0005 7.7495,6.2535 C8.00983333,6.5065 8.25183333,6.743 8.4755,6.963 C8.69916667,7.183 8.90083333,7.38466667 9.0805,7.568 C9.26016667,7.75133333 9.40866667,7.90166667 9.526,8.019 Z" id="路径" fill="#FF583D"></path>
                </g>
            </g>
        </g>
    </g>
</svg>