<?xml version="1.0" encoding="UTF-8"?>
<svg width="22px" height="22px" viewBox="0 0 22 22" version="1.1" xmlns="http://www.w3.org/2000/svg" xmlns:xlink="http://www.w3.org/1999/xlink">
    <title>编组 7备份 2</title>
    <g id="0708signup蓝湖" stroke="none" stroke-width="1" fill="none" fill-rule="evenodd" opacity="0.397065662">
        <g id="signup_setpassword默认态" transform="translate(-20.000000, -362.000000)">
            <g id="编组-7备份-2" transform="translate(20.000000, 362.000000)">
                <g id="编组-11">
                    <rect id="矩形" fill="#E9F0FF" x="0" y="0" width="22" height="22" rx="4.4"></rect>
                    <g id="正确" transform="translate(5.569691, 7.042770)" fill="#3179FF" fill-rule="nonzero" opacity="0">
                        <path d="M10.7666333,1.52254424 L4.32030578,7.97085042 C4.16597381,8.12518239 3.91468971,8.12518239 3.76035774,7.97085042 L2.91548914,7.12598183 C2.91548914,7.12598183 2.91548914,7.12598183 2.91548914,7.12598183 L0.115748978,4.32624164 C-0.0385829925,4.17190967 -0.0385829925,3.92062557 0.115748978,3.7662936 L0.960617569,2.92142501 C1.11494954,2.76709304 1.36623364,2.76709304 1.52056561,2.92142501 L4.03934246,5.43822325 L9.36181672,0.115748978 C9.51614869,-0.0385829925 9.76743279,-0.0385829925 9.92374337,0.115748978 L10.7666333,0.962596196 C10.9229439,1.11692817 10.9229439,1.36821227 10.7666333,1.52254424 L10.7666333,1.52254424 Z" id="形状"></path>
                    </g>
                </g>
                <rect id="矩形" fill="#3179FF" opacity="0.601678757" x="5.5" y="10" width="11" height="2" rx="0.4"></rect>
            </g>
        </g>
    </g>
</svg>