<?xml version="1.0" encoding="UTF-8"?>
<svg width="26px" height="20px" viewBox="0 0 26 20" version="1.1" xmlns="http://www.w3.org/2000/svg" xmlns:xlink="http://www.w3.org/1999/xlink">
    <title>Delete</title>
    <g id="0708login蓝湖" stroke="none" stroke-width="1" fill="none" fill-rule="evenodd">
        <g id="用户已经设置pin的情况" transform="translate(-295.000000, -741.000000)" fill="#000000" fill-rule="nonzero" stroke="#000000" stroke-width="0.6">
            <g id="编组-10备份" transform="translate(0.000000, 510.000000)">
                <g id="编组-9" transform="translate(281.000000, 214.000000)">
                    <path d="M33.5662936,17.7007445 C33.8897888,17.7020135 34.0583707,17.7043866 34.2377005,17.7087483 C34.652264,17.7141769 35.0658582,17.7502819 35.4852418,17.8185088 C35.940799,17.8974404 36.3820962,18.0436395 36.7950102,18.2524924 C37.2151393,18.4651945 37.5984082,18.743942 37.9287917,19.076644 C38.25877,19.4076116 38.5352357,19.7879221 38.751744,20.2110479 C38.9591252,20.6242265 39.1043817,21.0657608 39.184079,21.5295748 C39.2343007,21.8368298 39.267135,22.1465905 39.2823831,22.4534583 L39.2917617,22.759162 L39.3000254,30.6871111 C39.2865072,31.6190263 39.2495394,32.031805 39.1814807,32.4478487 C39.1026551,32.9072122 38.9562899,33.3523894 38.7437626,33.7753653 C38.5294663,34.1943598 38.2512668,34.5774521 37.9183268,34.9116921 C37.5837471,35.2468168 37.197914,35.5264993 36.7749741,35.7403993 C36.3594059,35.9503655 35.9149497,36.0974453 35.4478621,36.178107 C35.1378234,36.2290206 34.8252398,36.2623679 34.5129278,36.2779954 L34.2008106,36.2877107 L25.833364,36.2945322 C25.6635286,36.2938557 25.4915955,36.2915424 25.3230926,36.2877922 C24.9083215,36.2825695 24.4945313,36.2461251 24.0775519,36.1774432 C23.6218963,36.0987345 23.1803834,35.9530635 22.7625276,35.7426344 C22.4279812,35.5719079 22.1167787,35.359666 21.8456692,35.1208214 L21.6501163,34.9369329 L18.5995864,31.887998 L16.1104649,29.4050209 C15.5801345,28.8704552 15.409739,28.6825617 15.2537877,28.4915656 C15.0892987,28.3157353 14.9560789,28.1129014 14.8600383,27.8918188 C14.6559355,27.2761329 14.6584381,26.7149289 14.8267965,26.1937288 C14.955166,25.8835202 15.0885172,25.6812894 15.2514167,25.5059031 C15.3579306,25.3757442 15.4687087,25.2496681 15.5796821,25.1317756 L15.7457799,24.9615872 L18.1874669,22.5100305 L19.6025401,21.1030307 C21.994066,18.712757 22.3631763,18.4566775 22.7653943,18.2517696 C23.1782461,18.0436112 23.6195993,17.8975993 24.0854823,17.8168707 C24.494231,17.7503485 24.9073478,17.714221 25.3110131,17.7089372 C25.4401217,17.7058753 25.5581943,17.7038124 25.6686787,17.7027874 L25.8291451,17.7020331 L33.5662936,17.7007445 Z M33.5551242,19.6338567 L25.3430315,19.6417577 L25.0277798,19.6537577 C24.8175923,19.6669356 24.6079975,19.6904046 24.4027873,19.7237787 C24.1380991,19.7696921 23.8786398,19.8554428 23.6382046,19.9766634 C23.3877904,20.1042447 23.1626104,20.2784904 22.2432828,21.1954296 L22.2432828,21.1954296 L19.5525964,23.8787836 L17.1206997,26.3203303 L17.087788,26.3534824 C16.9677786,26.4777568 16.8551512,26.6444996 16.7513696,27.2690464 C16.8714857,27.4159877 17.01606,27.5726 17.4879444,28.0487701 L17.4879444,28.0487701 L19.9419671,30.4964562 L23.001084,33.5545735 L23.1469578,33.6897971 C23.2977768,33.8189876 23.4629423,33.9297497 23.6380558,34.0191213 C23.8791815,34.140536 24.1384774,34.2261898 24.4014506,34.271634 C24.7176278,34.3236793 25.039761,34.3509328 25.8411156,34.3614096 L25.8411156,34.3614096 L34.1776134,34.3547687 L34.496371,34.3428031 C34.7089133,34.3294995 34.9209675,34.3055974 35.1291575,34.2714239 C35.3968086,34.225172 35.6585033,34.1386104 35.9029679,34.0150945 C36.1421945,33.8941066 36.3607224,33.7357183 36.5497365,33.5463969 C36.73995,33.3554399 36.8995497,33.1358047 37.0204915,32.899372 C37.1430394,32.6554236 37.2295555,32.3926126 37.2753151,32.126054 C37.327622,31.8060979 37.3550025,31.4801927 37.3663675,30.7084378 L37.3663675,30.7084378 L37.3589541,22.7875065 L37.3472913,22.4723378 C37.3342608,22.26221 37.310773,22.0526 37.2771489,21.8467997 C37.2315019,21.5813252 37.1461856,21.3216447 37.0263613,21.0828701 C36.9058873,20.8474844 36.7480745,20.6303759 36.5588642,20.4405967 C36.372373,20.2527992 36.157446,20.0964905 35.9220529,19.9773161 C35.6807059,19.8552423 35.4224743,19.7695829 35.1620248,19.7244233 C34.8442851,19.6727904 34.5198718,19.6457793 33.5551242,19.6338567 L33.5551242,19.6338567 Z M32.4011509,23.0075799 C33.2003823,23.091247 33.2849186,23.2399297 33.3710503,23.3688322 C33.4661059,23.5110901 33.5205807,23.6804639 33.5223378,23.8587902 L33.5135814,23.9939297 L30.7732995,26.9857428 L33.1815362,29.3905127 C33.3491593,29.5504784 33.4474882,29.717306 33.4948932,29.8784334 C33.5525694,30.074472 33.5382808,30.2669519 33.4643373,30.4454772 C33.394849,30.613246 33.2782504,30.7518249 33.1336263,30.8484617 C32.9913592,30.9435236 32.8219726,30.9979992 32.6436336,30.9997495 L32.5084845,30.9909867 L29.5232519,28.2553899 L27.0017097,30.7816253 C26.7254955,30.9247839 26.5023045,30.975546 26.3219441,30.9728719 C26.0216746,30.96842 25.812708,30.8272773 25.6555863,30.6172056 L25.5913075,30.5231522 L28.2700217,27.0214897 L25.7237761,24.478038 C25.5792212,24.2030055 25.5277376,23.9803199 25.5299206,23.8001849 C25.5335593,23.4999365 25.6747928,23.2904067 25.8851602,23.1330779 L25.9793507,23.0687349 L29.4865315,25.7520172 L31.9145692,23.3215322 C32.0734541,23.1536231 32.23997,23.0550852 32.4011509,23.0075799 Z" id="Delete"></path>
                </g>
            </g>
        </g>
    </g>
</svg>