<?xml version="1.0" encoding="UTF-8"?>
<svg width="138px" height="122px" viewBox="0 0 138 122" version="1.1" xmlns="http://www.w3.org/2000/svg" xmlns:xlink="http://www.w3.org/1999/xlink">
    <title>编组 4</title>
    <defs>
        <linearGradient x1="69.7939966%" y1="100%" x2="69.7939966%" y2="-10.9788093%" id="linearGradient-1">
            <stop stop-color="#1C7BFF" offset="0%"></stop>
            <stop stop-color="#9D6FFF" offset="100%"></stop>
        </linearGradient>
    </defs>
    <g id="0716Account-Recovery蓝湖" stroke="none" stroke-width="1" fill="none" fill-rule="evenodd">
        <g id="login_processing-" transform="translate(-127.000000, -90.000000)">
            <g id="编组-4" transform="translate(127.000000, 90.000000)">
                <g id="编组-2" fill="url(#linearGradient-1)" fill-rule="nonzero">
                    <g id="Group-2备份-2">
                        <path d="M94.8757269,110.431287 L94.8757269,110.458875 L96.7586207,110.458875 L95.7828144,111.153182 C87.7023807,116.926729 78.3234881,120.60264 68.4831449,121.852862 L68.4831449,121.852862 L67.3103448,122 L68.1670386,121.176948 C75.3412506,114.249 84.9201139,110.395153 94.8757269,110.431287 L94.8757269,110.431287 Z M56.2944177,117.747595 C68.1616396,102.346888 87.9485165,95.5386423 106.652165,100.42056 L106.652165,100.42056 L107.275862,100.583935 L106.855444,101.050719 C105.524891,102.591108 104.134278,104.028803 102.697465,105.391814 L102.697465,105.391814 L102.549626,105.531849 L102.350967,105.494506 C99.7848655,105.014259 97.1806778,104.772079 94.5709258,104.77099 C81.4123937,104.715772 68.9763281,110.844703 60.9190145,121.355838 L60.9190145,121.355838 L60.6695358,121.691922 L60.4385369,122 L60.2398779,122 C58.234808,121.967325 56.229738,121.841293 54.2754878,121.617237 L54.2754878,121.617237 L53.637931,121.542551 L53.9751893,121.005749 C54.7051457,119.880799 55.4813018,118.779188 56.2851778,117.738259 L56.2851778,117.738259 Z M81.6162144,89.4616448 C82.4344859,89.2877183 83.2885645,89.4660205 83.967401,89.9524916 C84.6462375,90.4389627 85.0865051,91.1882212 85.1794103,92.0151196 L85.1794103,92.0151196 L85.1700211,92.0384603 C85.3443006,93.544206 84.3409932,94.9356721 82.8508923,95.2548115 C70.7427516,97.8488223 59.9453193,104.612517 52.3642073,114.352188 C50.7938242,116.36103 49.3708191,118.479612 48.1062117,120.691528 L48.1062117,120.691528 L47.9606794,120.948276 L47.6696146,120.882922 C45.9388748,120.500134 44.2284782,120.042656 42.5384248,119.510488 L42.5384248,119.510488 L42.0689655,119.356439 L42.2990006,118.931638 C43.8587857,116.042696 45.6583681,113.288264 47.6790038,110.697032 C55.3660328,100.825627 66.0488729,93.6816506 78.1422158,90.3252515 C79.2970856,90.0015935 80.4550851,89.7137246 81.6162144,89.4616448 Z M74.9854707,80.0479578 C89.0451474,76.3847242 103.912862,77.271628 117.431349,82.5799819 L117.431349,82.5799819 L117.793103,82.7229559 L117.658605,83.082697 C117.064956,84.6738597 116.397102,86.2511862 115.673592,87.77778 L115.673592,87.77778 L115.515904,88.1144607 L115.168063,87.9760988 C89.5790974,77.9060352 60.3773637,85.8080621 43.4478864,107.383671 C40.9861299,110.5307 38.8335739,113.905272 37.0197847,117.461035 L37.0197847,117.461035 L36.852821,117.793104 L36.5096179,117.645518 C34.9466523,116.976768 33.3976004,116.234225 31.8949273,115.436338 L31.8949273,115.436338 L31.5517241,115.256468 L31.7279636,114.910563 C33.723185,110.987383 36.0948829,107.265066 38.8100064,103.795484 C47.8937964,92.1170162 60.6167093,83.7650097 74.9854707,80.0479578 Z M29.4844958,99.9293534 C30.3348403,99.8379526 31.1792879,100.152549 31.7842254,100.786111 L31.7842254,100.786111 L31.7707436,100.809683 C32.7291327,101.818251 32.8775998,103.395491 32.125763,104.581231 C30.6046768,107.007211 29.2226001,109.526031 27.9868664,112.124327 L27.9868664,112.124327 L27.793628,112.534483 L27.4296208,112.279904 C26.0544825,111.30873 24.692826,110.262126 23.3850964,109.168377 L23.3850964,109.168377 L23.137931,108.960941 L23.2817363,108.668646 C24.5251588,106.12203 25.8993191,103.648033 27.3981634,101.257554 C27.868062,100.508462 28.6341513,100.020754 29.4844958,99.9293534 Z M40.2980191,71.5172444 L40.4959095,71.5911813 C42.6431463,72.3950729 44.8959466,72.8792483 47.1827638,73.0283306 L47.1827638,73.0283306 L48.3793103,73.1115096 L47.3668479,73.7584579 L47.3530416,73.7584579 C39.5852286,78.7382363 32.7279199,85.0219889 27.080782,92.3351138 C24.092265,96.2150741 21.45694,100.356787 19.2065853,104.710309 L19.2065853,104.710309 L18.9626739,105.172415 L18.5853016,104.798109 C17.3059172,103.559665 16.0725538,102.251906 14.9036199,100.865588 L14.9036199,100.865588 L14.7241379,100.65764 L14.8529968,100.417345 C17.0873619,96.3277885 19.6419018,92.4230218 22.4924862,88.7399301 C27.5343292,82.230314 33.4721455,76.4734202 40.1277413,71.642013 L40.1277413,71.642013 L40.2980191,71.5172444 Z M33.3744744,92.8935557 C55.0043809,68.0334519 90.0370572,59.5657663 120.669866,71.7935424 L120.669866,71.7935424 L120.948276,71.9370799 L120.892594,72.2565666 C120.813711,72.7057001 120.730188,73.1316824 120.637385,73.5947066 C120.386816,74.8124602 120.089846,76.0626256 119.755754,77.2989003 L119.755754,77.2989003 L119.63511,77.734143 L119.217495,77.5581938 C110.58381,73.9654286 101.320155,72.1223251 91.9658161,72.1361803 C88.9564749,72.137673 85.9501035,72.3247829 82.9638993,72.6964396 C65.4443123,74.8316603 49.3499492,83.4022501 37.8197508,96.7366566 C37.1411594,97.5620158 36.0670222,97.9546957 35.0147003,97.7621188 C33.9623784,97.569542 33.097786,96.8220709 32.7568648,95.810139 C32.4159435,94.7982071 32.6524446,93.6813607 33.3744744,92.8935557 Z M30.3463056,65.2068999 L30.6000966,65.5118368 C31.7064809,66.7816625 32.9438617,67.9307938 34.2916022,68.9400661 L34.2916022,68.9400661 L34.7068966,69.2496232 L34.2962166,69.5684208 L34.3054453,69.55456 C28.3196315,74.2088193 22.938993,79.5947541 18.2889255,85.5868453 C15.6704689,88.9590757 13.2898367,92.509868 11.1643197,96.2134321 L11.1643197,96.2134321 L10.8505417,96.7586222 L10.4952343,96.2411536 C9.41085456,94.6610264 8.39569053,93.0162155 7.47281413,91.3529237 L7.47281413,91.3529237 L7.36206897,91.1496325 L7.4820429,90.9509615 C9.3773547,87.8507985 11.4431646,84.8584255 13.6699291,81.9876666 C18.4463405,75.8334792 23.9463806,70.2783491 30.0509851,65.4425329 L30.0509851,65.4425329 L30.3463056,65.2068999 Z M91.0927017,88.3826186 C98.5909691,88.1185929 106.072285,89.2400322 113.130702,91.6860855 L113.130702,91.6860855 L113.586207,91.8259864 L113.337323,92.2276375 C112.435704,93.695845 111.469908,95.1249405 110.439934,96.5149238 L110.439934,96.5149238 L110.261488,96.7586222 L109.979733,96.6683635 C104.591566,94.9464531 98.9498733,94.0702424 93.2716132,94.0734271 C92.6235749,94.0734271 91.9864937,94.0839572 91.3603697,94.1050176 C89.7526703,94.1224153 88.4200892,92.9117659 88.3478872,91.3681783 C88.2756851,89.8245907 89.4898624,88.503919 91.0927017,88.3826186 Z M11.7917961,67.3117139 C12.5755162,67.2870259 13.3344996,67.5979353 13.8904826,68.1714183 L13.8904826,68.1714183 C14.9644424,69.2970883 15.0059451,71.0908349 13.9848507,72.2593382 C12.442006,74.0399373 10.9590775,75.8780252 9.5360654,77.7736019 C7.922819,79.9177789 6.35450982,82.2250997 4.86708765,84.5557268 L4.86708765,84.5557268 L4.46714634,85.1896574 L4.18853555,84.485808 C3.40880369,82.511963 2.72932001,80.4970926 2.15287922,78.4494838 L2.15287922,78.4494838 L2.10344828,78.2630336 L2.21129762,78.104551 C3.15497936,76.7201585 4.10764854,75.3870398 5.04234283,74.1378237 C6.54624198,72.1303769 8.11455116,70.1850801 9.74727036,68.3019334 C10.2686797,67.6945116 11.008076,67.3364018 11.7917961,67.3117139 Z M25.2413793,41.0172462 L25.2413793,48.1039013 L25.0725407,48.2245647 L25.0584708,48.210642 C16.1838524,54.462339 8.2832633,61.9675616 1.60865721,70.4869645 L1.60865721,70.4869645 L0.811363549,71.5172462 L0.670664668,70.5890643 C0.299679487,68.1680451 0.0757227576,65.7271927 0,63.279646 L0,63.279646 L0,63.1264963 L0.0984892169,63.0104737 C7.19952872,54.7049919 15.4547227,47.4377283 24.6176143,41.4256455 L24.6176143,41.4256455 L25.2413793,41.0172462 Z M80.4495565,56.4016773 C94.4047905,54.6895794 108.576251,56.3190144 121.745543,61.1498912 L121.745543,61.1498912 L122,61.244946 L122,61.7383258 C122,63.3859424 121.925976,65.0878761 121.777929,66.7898099 L121.777929,66.7898099 L121.731664,67.3103481 L121.232004,67.1157121 C111.733613,63.3758143 101.588268,61.4594776 91.3495503,61.471267 C83.6090332,61.4670719 75.9067977,62.5337966 68.4715921,64.6397606 L68.4715921,64.6397606 L67.3103448,64.9701892 L68.0459556,64.0332204 C69.4511411,62.2421728 70.581156,60.2597635 71.4001558,58.1488752 L71.4001558,58.1488752 L71.4741795,57.9542391 L71.6823712,57.9089749 C74.5739874,57.2619797 77.4969761,56.7574034 80.4403035,56.3971508 L80.4403035,56.3971508 Z M25.1473368,54.6896592 L25.3163746,55.2661997 C25.7510906,56.9321314 26.3811933,58.5475593 27.1951084,60.0828101 L27.1951084,60.0828101 L27.3448276,60.3688106 L27.0791968,60.5640172 C24.9573706,62.1256703 22.8999397,63.7705511 20.9069041,65.4986595 C19.6639227,66.5742488 17.728657,66.4990468 16.5843673,65.330691 C15.4400775,64.1623353 15.5200829,62.3432584 16.7630643,61.2676691 C19.2970207,59.0734859 21.9307899,57.0003611 24.6643718,55.0482946 L24.6643718,55.0482946 L25.1473368,54.6896592 Z M22.7323616,29.4482814 L22.9544404,29.7469589 C24.0418061,31.2085508 24.8010222,32.8889513 25.1799533,34.6727672 L25.1799533,34.6727672 L25.2413793,34.952481 L25.0004002,35.1041902 L24.9909501,35.0852266 C16.0645563,40.63348 7.89832824,47.3273296 0.699311894,54.99706 L0.699311894,54.99706 L0,55.7413833 L0,47.1461085 L0.122852089,47.0275857 C6.88436042,40.4165374 14.3618491,34.5852896 22.4157813,29.6426588 L22.4157813,29.6426588 L22.7323616,29.4482814 Z M116.270262,48.7044079 C116.990882,48.3456539 117.828375,48.2809583 118.598011,48.5245912 C119.644777,48.837243 120.688427,49.1696252 121.728962,49.5217379 L121.728962,49.5217379 L122,49.6128015 L122,55.7413833 L121.462598,55.5547028 C119.901795,54.9961793 118.328531,54.4801521 116.742805,54.0066213 C115.188631,53.5481042 114.302878,51.956067 114.756754,50.4369273 C115.005103,49.6864996 115.549643,49.0631619 116.270262,48.7044079 Z M78.1323365,44.9200161 C88.1009494,43.6811986 98.2081089,43.9834821 108.079746,45.815679 C109.550258,46.0969269 110.561511,47.4181724 110.417375,48.8698897 C110.342355,49.6673788 109.924765,50.3969505 109.267518,50.8788084 C108.61027,51.3606663 107.774492,51.5499955 106.966152,51.4001375 C101.430171,50.370284 95.8064142,49.8529683 90.1702014,49.8551189 C86.385854,49.8573753 82.6052818,50.0877029 78.8501909,50.5447794 C76.9865306,50.7776518 75.0446426,51.0776989 73.0797465,51.4404423 L73.0797465,51.4404423 L72.5689655,51.534487 L72.6149818,51.0329157 C72.6702014,50.3611685 72.7024128,49.6983779 72.7024128,49.0714138 L72.7024128,49.0714138 L72.7024128,45.7350694 L73.0291285,45.6768513 C74.7593415,45.3678476 76.4803513,45.1215402 78.1323365,44.9200161 Z M76.0054972,33.4739176 C91.3687044,31.4739273 106.976557,32.9303135 121.724891,37.7400456 L121.724891,37.7400456 L122,37.8301083 L122,44.1724184 L121.473096,43.992293 C111.146232,40.4344327 100.315045,38.6233375 89.4112348,38.6311923 C85.1728238,38.6338317 80.9386306,38.9029535 76.7329042,39.4370164 C75.6091537,39.5792207 74.4341116,39.7498658 73.035252,39.9821328 L73.035252,39.9821328 L72.5689655,40.0579751 L72.5689655,33.9574121 L72.9093547,33.9052706 C74.0564195,33.7298853 75.0682613,33.5829409 76.0008343,33.4644374 L76.0008343,33.4644374 Z M5.50146709,26.3304086 C8.94068792,24.0085904 13.3091364,23.5440399 17.1604276,25.0905691 L17.1604276,25.0905691 L17.8793103,25.3778772 L17.2253589,25.7949374 L17.216083,25.8088394 C11.3683692,29.5245602 5.83253236,33.708933 0.663227336,38.3206458 L0.663227336,38.3206458 L0,38.9137981 L0,36.6755749 C0.000923935947,32.5284151 2.06224625,28.6522268 5.50146709,26.3304086 Z M73.9121241,23.0330872 C88.7881774,21.0836505 103.887323,22.1507527 118.371606,26.1751733 C119.369648,26.4366103 120.460964,26.7609859 121.70152,27.1434586 L121.70152,27.1434586 L122,27.2644943 L122,33.6551777 L121.482324,33.4857277 C110.828409,29.9985203 99.7225772,28.2269713 88.55162,28.2327796 C83.907064,28.2352478 79.2671032,28.5359906 74.6583233,29.133285 L74.6583233,29.133285 L73.4317584,29.3075764 L72.5689655,29.4334535 L72.5689655,25.0761694 C72.5689655,24.6113924 72.5829568,24.1127254 72.615603,23.5559613 L72.615603,23.5559613 L72.615603,23.2170615 L73.3338197,23.1153915 Z M91.3592331,11.5698894 C101.04787,11.8237508 110.673159,13.1750761 120.040551,15.5965521 L120.040551,15.5965521 L120.230924,15.646264 L120.305216,15.8225152 C121.080071,17.6319362 121.621273,19.5279383 121.916422,21.4670739 L121.916422,21.4670739 L122,22.0862129 L121.405665,21.9144809 C120.435227,21.6207288 119.543724,21.3947657 118.666151,21.1688026 C109.700507,18.8409235 100.486322,17.5396086 91.2106493,17.2912755 C90.1605837,17.2654424 89.204443,16.6963265 88.7023961,15.7983083 C88.2003493,14.9002901 88.2286692,13.8098 88.7766881,12.9376151 C89.3247069,12.0654301 90.3091675,11.544056 91.3592331,11.5698894 Z M80.9492638,11.5732763 C81.827473,11.5276746 82.6831309,11.8461697 83.2930343,12.4456803 C83.9029378,13.0451909 84.2066041,13.8662651 84.1248204,14.6947211 L84.1248204,14.6947211 L84.1343566,14.6811888 C83.9936599,16.0962757 82.7742037,17.1980015 81.2734948,17.2658534 C78.9323563,17.3831331 76.5864497,17.5680742 74.2548473,17.8116552 L74.2548473,17.8116552 L73.6206897,17.8793166 L73.82095,17.3064502 C74.4766104,15.44235 75.3734642,13.6621228 76.4910876,12.0063091 L76.4910876,12.0063091 L76.600754,11.8439218 L76.8010143,11.8439218 C78.1837641,11.7326564 79.566514,11.6424413 80.9492638,11.5732763 Z M96.6898659,7.27333126e-06 C103.618724,-0.00547076555 110.223059,3.08369045 114.854956,8.49668983 L114.854956,8.49668983 L115.689655,9.46552395 L114.476805,9.17487371 C105.220657,6.96813917 95.7592032,5.8519341 86.2676515,5.8469285 L86.2676515,5.8469285 C84.9348992,5.83724016 83.5744774,5.86146101 82.2278904,5.90505855 L82.2278904,5.90505855 L80.9827586,5.94381191 L81.9788641,5.17358878 C85.8487231,2.09782472 90.5065606,0.309443661 95.3525021,0.038767931 C95.8228853,7.27333126e-06 96.2609872,7.27333126e-06 96.6898659,7.27333126e-06 Z" id="Combined-Shape"></path>
                    </g>
                </g>
                <g id="锁-1" transform="translate(88.000000, 75.362158)">
                    <rect id="矩形" fill="#000000" fill-rule="nonzero" opacity="0" x="0" y="0" width="50" height="46.5"></rect>
                    <path d="M40.5133628,19.6339887 L37.0892209,19.6339887 L37.0892209,11.8927536 C37.0892209,5.40981486 31.6695229,0.137841797 25.0015333,0.137841797 C18.3330059,0.137841797 12.9071224,5.40981486 12.9071224,11.8932222 L12.9071224,19.6338846 L9.48663792,19.6338846 C7.83714824,19.6338846 6.49973145,20.933107 6.49973145,22.5368282 L6.49973145,43.7313575 C6.49973145,45.337578 7.83714824,46.6378418 9.48663792,46.6378418 L40.5164287,46.6378418 C42.1659184,46.6378418 43.4997314,45.3376821 43.4997314,43.7313575 L43.4997314,22.5368282 C43.4997314,20.9330029 42.1628525,19.6338846 40.512825,19.6338846 L40.5133628,19.6339887 Z" id="形状" fill="#FF583D"></path>
                    <path d="M32.4502967,19.6339887 L17.5518555,19.6339887 L17.5518555,12.0847315 C17.5518555,8.09151786 20.8971994,4.8395566 25.0041689,4.8395566 C29.1116763,4.8395566 32.4508346,8.09146579 32.4508346,12.0847315 L32.4508346,19.6339887 L32.4502967,19.6339887 Z" id="路径" fill="#FFFFFF"></path>
                    <path d="M26.6783468,33.6865435 L26.6783468,38.3144247 C26.6774863,38.524054 26.5027857,38.6938505 26.286669,38.6958292 L23.7192483,38.6958292 C23.5020021,38.6946836 23.3262258,38.5246788 23.3247736,38.3145809 L23.3247736,33.6865956 C22.1187049,33.0868664 21.2833909,31.8849086 21.2833909,30.4760812 C21.2833909,28.4824683 22.9478334,26.8611999 24.9984674,26.8611999 C27.0522211,26.8611999 28.7172099,28.4824162 28.7172099,30.4755605 C28.7202674,31.8849086 27.8849534,33.0869184 26.6784006,33.6860749 L26.6783468,33.6865435 Z" id="路径"></path>
                    <g id="绿洲_常用操作_问号" transform="translate(21.000000, 24.637842)" fill="#FFFFFF" fill-rule="nonzero">
                        <path d="M3.07328101,15.4331824 C3.07328101,14.567853 3.77476914,13.8663648 4.64009859,13.8663648 L4.8840297,13.8663648 C5.74935915,13.8663648 6.45084728,14.567853 6.45084728,15.4331824 C6.45084728,16.2985119 5.74935915,17 4.8840297,17 L4.64009859,17 C3.77476914,17 3.07328101,16.2985119 3.07328101,15.4331824 Z M8.45989063,8.21164699 L7.48206999,9.27046424 C7.05798764,9.72557349 6.75972723,10.1410584 6.57262223,10.5175046 C6.38499995,10.8939508 6.29870465,11.3803671 6.29870465,11.9763143 C6.29870465,12.1790925 6.13432042,12.3434767 5.93154219,12.3434767 L4.18771326,12.3434767 C3.67306059,12.3434767 3.25585216,11.9262683 3.25585216,11.4116156 L3.25585216,11.4116156 L3.25585216,11.4116156 C3.25585216,10.6274454 3.36810299,9.96457907 3.59652993,9.42336806 C3.82459172,8.88221563 4.21495927,8.31385621 4.76921485,7.71752837 L5.69780214,6.70580351 C6.04009262,6.34517189 6.28011283,5.956894 6.41874518,5.54108697 C6.55704283,5.12566066 6.6264503,4.68229522 6.6264503,4.21172279 C6.6264503,3.61574639 6.48772665,3.13345944 6.21079665,2.76468622 C5.9335015,2.39629373 5.5179087,2.21173141 4.96401827,2.21173141 C4.34446307,2.21173141 3.9143863,2.45105913 3.645459,2.92936314 C3.37653169,3.40804788 3.25585216,4.0315827 3.25585216,4.79993833 C3.25585216,5.13279094 2.98602181,5.4026213 2.65316919,5.4026213 L0.555619871,5.4026213 C0.248759489,5.4026213 3.75795584e-17,5.15386181 0,4.84700143 L0,4.84700143 L0,4.84700143 C0,4.14114279 0.102270272,3.49043027 0.306232674,2.89410243 C0.509829935,2.29812602 0.811559187,1.78822208 1.21111615,1.36468347 C1.61027754,0.94117414 2.11158749,0.608100938 2.71474171,0.364702417 C3.31753078,0.121684617 4.02654584,0 4.84166517,0 C6.56903167,0 7.86093555,0.41173623 8.71652481,1.23526726 C9.57211408,2.0587983 10,3.16095928 10,4.54113521 C10,5.19993075 9.89000088,5.81172176 9.6700635,6.3763911 C9.45003483,6.94108973 9.04667431,7.55285145 8.45989063,8.21164699 Z" id="形状"></path>
                    </g>
                </g>
            </g>
        </g>
    </g>
</svg>