<?xml version="1.0" encoding="UTF-8"?>
<svg width="40px" height="40px" viewBox="0 0 40 40" version="1.1" xmlns="http://www.w3.org/2000/svg" xmlns:xlink="http://www.w3.org/1999/xlink">
    <title>编组 13</title>
    <defs>
        <linearGradient x1="69.7939966%" y1="100%" x2="69.7939966%" y2="-10.9788093%" id="linearGradient-1">
            <stop stop-color="#1C7BFF" offset="0%"></stop>
            <stop stop-color="#9D6FFF" offset="100%"></stop>
        </linearGradient>
    </defs>
    <g id="0708login蓝湖" stroke="none" stroke-width="1" fill="none" fill-rule="evenodd">
        <g id="login_input-" transform="translate(-30.000000, -362.000000)">
            <g id="编组-7" transform="translate(20.000000, 354.000000)">
                <g id="编组-13" transform="translate(10.000000, 8.000000)">
                    <circle id="椭圆形" fill="#E9F0FF" cx="20" cy="20" r="20"></circle>
                    <g id="编组-12" transform="translate(8.000000, 8.058980)" fill="url(#linearGradient-1)" fill-rule="nonzero">
                        <g id="Group-2备份-2">
                            <path d="M11.0743117,23.1634613 C13.4088471,20.1338139 17.3013475,18.794487 20.9807538,19.7548644 L20.9807538,19.7548644 L21.1034483,19.7870036 L21.0207431,19.87883 C20.7589949,20.1818572 20.4854317,20.4646826 20.20278,20.7328158 L20.20278,20.7328158 L20.1736969,20.7603637 L20.1346164,20.7530176 C19.6298096,20.6585428 19.1175104,20.6109008 18.6041165,20.6106866 C16.0155529,20.599824 13.5691137,21.8055153 11.9840684,23.8732795 L11.9840684,23.8732795 L11.9349906,23.9393946 L11.8895482,24 L11.8504678,24 C11.4560278,23.9935722 11.0615878,23.968779 10.6771451,23.9247023 L10.6771451,23.9247023 L10.5517241,23.9100101 L10.61807,23.8044097 C10.761668,23.583108 10.9143545,23.3663977 11.072494,23.1616247 L11.072494,23.1616247 Z M18.6640774,21.7241876 L18.6640774,21.7296148 L19.0344828,21.7296148 L18.8425209,21.8661997 C17.2529274,23.0019795 15.4078993,23.7251095 13.4720941,23.9710549 L13.4720941,23.9710549 L13.2413793,24 L13.4099092,23.8380881 C14.8212296,22.4752132 16.7055962,21.7170792 18.6640774,21.7241876 L18.6640774,21.7241876 Z M16.0556487,17.5990121 C16.2166202,17.564797 16.3846356,17.5998729 16.5181772,17.6955721 C16.6517189,17.7912714 16.7383289,17.9386665 16.7566053,18.101335 L16.7566053,18.101335 C16.7890427,18.4021389 16.5916708,18.6758699 16.2985362,18.7386514 C13.9166069,19.2489487 11.7925218,20.5795116 10.3011555,22.4955125 C9.9922277,22.8906944 9.71229228,23.3074646 9.46351706,23.7425957 L9.46351706,23.7425957 L9.43488774,23.7931035 L9.3776291,23.7802469 C9.03715569,23.7049444 8.70068423,23.6149487 8.36821471,23.5102599 L8.36821471,23.5102599 L8.27586207,23.4799552 L8.32111486,23.3963877 C8.62795783,22.8280713 8.98197405,22.2862159 9.37947616,21.7764653 C10.8916786,19.8345496 12.9932209,18.4291772 15.3722392,17.7689019 C15.5994267,17.7052315 15.8272299,17.6486016 16.0556487,17.5990121 Z M14.7512401,15.7471392 C17.5170782,15.0265031 20.4418745,15.200976 23.1012489,16.2452423 L23.1012489,16.2452423 L23.1724138,16.2733684 L23.1459551,16.3441371 C23.0291717,16.6571527 22.8977905,16.9674465 22.7554608,17.26776 L22.7554608,17.26776 L22.7244402,17.3339923 L22.6560125,17.3067735 C17.6221175,15.3257774 11.8775142,16.8802745 8.5471252,21.1246567 C8.06284524,21.7437443 7.63939158,22.4075945 7.2825806,23.1070888 L7.2825806,23.1070888 L7.24973528,23.1724138 L7.18221991,23.1433805 C6.87475128,23.0118232 6.57001975,22.8657493 6.27441192,22.7087878 L6.27441192,22.7087878 L6.20689655,22.6734035 L6.24156661,22.6053566 C6.63406917,21.8335835 7.1006327,21.1013244 7.63475536,20.4187838 C9.42173044,18.1213802 11.9245986,16.4783626 14.7512401,15.7471392 Z M5.80022869,19.6582335 C5.96750957,19.640253 6.1336304,19.7021408 6.2526345,19.8267758 L6.2526345,19.8267758 C6.4385179,20.0298198 6.46772454,20.3400966 6.31982223,20.5733569 C6.02059215,21.0505989 5.74870821,21.5461045 5.50561306,22.0572447 L5.50561306,22.0572447 L5.46759895,22.1379311 L5.39599097,22.0878499 C5.12547197,21.8967994 4.85760511,21.6909099 4.60034684,21.4757462 L4.60034684,21.4757462 L4.55172414,21.4349393 L4.58001371,21.3774386 C4.8246214,20.876465 5.09494802,20.389777 5.38980263,19.9195188 C5.4822417,19.7721564 5.6329478,19.6762139 5.80022869,19.6582335 Z M7.92747917,14.0689661 L7.96640843,14.0835111 C8.38881566,14.2416537 8.8319895,14.3369013 9.28185518,14.366229 L9.28185518,14.366229 L9.51724138,14.3825921 L9.31806844,14.5098606 C7.78725809,15.4894891 6.43827932,16.7256372 5.32736695,18.1642847 C4.73946196,18.9275556 4.22103738,19.7423187 3.77834466,20.5987493 L3.77834466,20.5987493 L3.73036209,20.6896554 L3.6561249,20.6160215 C3.40444273,20.3723932 3.16181387,20.115129 2.93185965,19.8424108 L2.93185965,19.8424108 L2.89655172,19.801503 L2.92190101,19.7542319 C3.36144824,18.9497289 3.86398069,18.1815781 4.42475139,17.4570354 C5.41658936,16.1764552 6.58468436,15.0439515 7.8939819,14.0935107 L7.8939819,14.0935107 L7.92747917,14.0689661 Z M6.56547038,18.2741421 C10.8205339,13.3836299 17.712208,11.7178557 23.7383343,14.1233198 L23.7383343,14.1233198 L23.7931034,14.1515567 L23.7821496,14.2144065 C23.7666317,14.3027607 23.750201,14.3865605 23.7319446,14.4776472 C23.6826523,14.7172053 23.6242319,14.9631395 23.558509,15.206341 L23.558509,15.206341 L23.5347757,15.2919626 L23.452622,15.2573496 C21.7541921,14.5505761 19.9318338,14.1879984 18.0916359,14.190724 C17.4996344,14.1910176 16.9082171,14.2278261 16.3207671,14.3009389 C12.8742909,14.7209823 9.70818674,16.407 7.43995098,19.030162 C7.3064576,19.1925277 7.09515192,19.2697762 6.88813777,19.2318922 C6.68112361,19.1940083 6.51103988,19.0469648 6.44397339,18.8478962 C6.37690691,18.6488276 6.42343172,18.4291201 6.56547038,18.2741421 Z M5.96976503,12.8275869 L6.01969113,12.8875744 C6.23734051,13.1373762 6.48075967,13.3634349 6.74588895,13.5619802 L6.74588895,13.5619802 L6.82758621,13.6228767 L6.7467967,13.685591 C5.57107505,14.5984563 4.51258879,15.6579844 3.59782141,16.8367565 C3.0827152,17.500146 2.6143941,18.1986626 2.19625962,18.9272325 L2.19625962,18.9272325 L2.1345328,19.0344831 L2.06463626,18.932686 C1.85131565,18.6218413 1.65161125,18.2982719 1.4700618,17.971067 L1.4700618,17.971067 L1.44827586,17.9310752 L1.47187729,17.8919924 C1.84472551,17.2821243 2.25111435,16.6934608 2.68916639,16.1287213 C3.6287883,14.9180615 4.71076339,13.825249 5.91166921,12.8739409 L5.91166921,12.8739409 L5.96976503,12.8275869 Z M17.9198757,17.3867446 C19.3949447,17.3348052 20.866679,17.5554162 22.25522,18.036607 L22.25522,18.036607 L22.3448276,18.0641285 L22.2958667,18.1431418 C22.1184992,18.4319695 21.9285064,18.713103 21.7258886,18.9865424 L21.7258886,18.9865424 L21.6907846,19.0344831 L21.6353572,19.0167273 C20.57539,18.6779908 19.4655488,18.5056214 18.3485141,18.5062479 C18.2210311,18.5062479 18.0957037,18.5083195 17.9725317,18.5124625 C17.656263,18.515885 17.3941159,18.2777244 17.3799122,17.9740679 C17.3657085,17.6704113 17.6045631,17.410607 17.9198757,17.3867446 Z M2.31969759,13.2416486 C2.47387205,13.236792 2.62318024,13.2979545 2.73255395,13.4107708 L2.73255395,13.4107708 C2.94382474,13.6322141 2.95198919,13.9850823 2.75111818,14.2149518 C2.44760774,14.5652336 2.15588411,14.9268246 1.87594729,15.299725 C1.55858734,15.7215303 1.25006751,16.1754294 0.957459866,16.6339135 L0.957459866,16.6339135 L0.878782888,16.7586211 L0.823974206,16.6201589 C0.670584333,16.2318616 0.536915411,15.8354936 0.423517224,15.4326853 L0.423517224,15.4326853 L0.413793103,15.3960066 L0.435009367,15.3648297 C0.620651677,15.0924902 0.808062008,14.8302373 0.991936295,14.5844899 C1.28778531,14.1895823 1.59630515,13.806901 1.91749581,13.4364459 C2.02006814,13.3169531 2.16552314,13.2465053 2.31969759,13.2416486 Z M4.96551724,8.06896647 L4.96551724,9.46306255 L4.93230308,9.48679961 C3.18370867,10.7139027 1.62949442,12.19034 0.316457156,13.8662881 L0.316457156,13.8662881 L0.159612501,14.0689665 L0.131934033,13.8863733 C0.0589533417,13.4101072 0.0148962802,12.9299396 0,12.4484549 L0,12.4484549 L0,12.4183271 L0.0193749279,12.395503 C1.41630073,10.7616378 3.04027332,9.33201213 4.84280936,8.1493073 L4.84280936,8.1493073 L4.96551724,8.06896647 Z M15.8261423,11.0954119 C18.5714342,10.7586058 21.3592624,11.0791504 23.949943,12.0294868 L23.949943,12.0294868 L24,12.0481861 L24,12.1452444 C24,12.4693657 23.985438,12.8041724 23.9563139,13.138979 L23.9563139,13.138979 L23.9472126,13.24138 L23.8489188,13.2030909 C21.980383,12.4673733 19.9845774,12.090389 17.9704033,12.0927083 C16.4476787,12.091883 14.9324848,12.3017305 13.4698214,12.7160185 L13.4698214,12.7160185 L13.2413793,12.7810208 L13.3860896,12.5966991 C13.6625196,12.2443619 13.8848176,11.8543797 14.0459323,11.439123 L14.0459323,11.439123 L14.0604943,11.4008339 L14.1014501,11.3919295 C14.6702926,11.2646517 15.2453068,11.1653908 15.824322,11.0945215 L15.824322,11.0945215 Z M4.94701708,10.7586215 L4.98027041,10.8720393 C5.06578832,11.1997636 5.18974294,11.5175527 5.3498574,11.8195692 L5.3498574,11.8195692 L5.37931034,11.8758316 L5.32705511,11.9142329 C4.90964667,12.2214433 4.50490616,12.5450264 4.11283359,12.8849822 C3.86831266,13.0965735 3.48760466,13.0817797 3.26249848,12.8519392 C3.0373923,12.6220987 3.05313107,12.2642475 3.297652,12.0526562 C3.79613522,11.6210136 4.31425375,11.2131858 4.85200757,10.8291727 L4.85200757,10.8291727 L4.94701708,10.7586215 Z M4.47193999,5.79310453 L4.51562762,5.85186076 C4.72953563,6.13938704 4.87888961,6.46995763 4.95343343,6.82087223 L4.95343343,6.82087223 L4.96551724,6.87589791 L4.91811152,6.90574234 C3.16024058,7.99347148 1.55376949,9.31029435 0.137569553,10.8190938 L0.137569553,10.8190938 L0,10.965518 L0,9.2746443 L0.0241676242,9.25132833 C1.35430041,7.95079425 2.8252818,6.80366353 4.40966189,5.83134271 L4.40966189,5.83134271 L4.47193999,5.79310453 Z M22.8728385,9.581195 C23.0145997,9.51062045 23.1793525,9.49789343 23.3307562,9.54582122 C23.5366774,9.60732649 23.7419857,9.67271316 23.9466811,9.74198122 L23.9466811,9.74198122 L24,9.75989538 L24,10.965518 L23.8942815,10.928794 C23.5872384,10.8189205 23.2777438,10.717407 22.9657977,10.6242534 C22.6600585,10.5340533 22.485812,10.2208656 22.5750991,9.92201848 C22.6239546,9.77439337 22.7310773,9.65176956 22.8728385,9.581195 Z M15.3702957,8.83672447 C17.3313343,8.59302267 19.319628,8.65248828 21.2615895,9.01292046 C21.5508704,9.06824792 21.7498055,9.32816506 21.7214508,9.61374879 C21.7066927,9.77063189 21.624544,9.9141542 21.4952494,10.0089459 C21.3659548,10.1037376 21.2015394,10.1409827 21.0425217,10.1115025 C19.9534762,9.90890832 18.8471634,9.80714131 17.7384003,9.80756438 C16.9939385,9.80800825 16.2502194,9.8533186 15.511513,9.94323529 C15.1448913,9.98904625 14.7628805,10.0480719 14.3763436,10.1194313 L14.3763436,10.1194313 L14.2758621,10.1379319 L14.2849145,10.0392621 C14.2957773,9.90711511 14.302114,9.77673008 14.302114,9.65339289 L14.302114,9.65339289 L14.302114,8.99706283 L14.3663859,8.98561009 C14.7067557,8.92482247 15.045315,8.87636857 15.3702957,8.83672447 Z M14.9519011,6.58503298 C17.9741714,6.19159225 21.0445686,6.47809447 23.9458802,7.42427126 L23.9458802,7.42427126 L24,7.44198851 L24,8.68965609 L23.8963468,8.65422158 C21.8648324,7.95431463 19.7341072,7.59803361 17.5890954,7.59957881 C16.7553096,7.60009804 15.9223536,7.65304004 15.0949975,7.75810159 C14.8739319,7.7860762 14.6427761,7.81964574 14.3675906,7.8653376 L14.3675906,7.8653376 L14.2758621,7.88025739 L14.2758621,6.68014665 L14.3428239,6.66988929 C14.568476,6.63538727 14.7675268,6.60648018 14.9509838,6.583168 L14.9509838,6.583168 Z M1.08225582,5.17975251 C1.75882385,4.72300138 2.61819076,4.63161442 3.37582182,4.93584965 L3.37582182,4.93584965 L3.51724138,4.99236929 L3.3885952,5.07441392 C2.23640049,5.80811021 1.14738342,6.6312655 0.130470951,7.53848769 L0.130470951,7.53848769 L0,7.65517339 L0,7.2148672 C0.000181757891,6.39903248 0.405687788,5.63650364 1.08225582,5.17975251 Z M14.54009,4.53109913 C17.4665267,4.14760337 20.4368505,4.35752513 23.2862176,5.14921441 C23.4825537,5.20064465 23.6972388,5.26445624 23.9412827,5.33969678 L23.9412827,5.33969678 L24,5.36350707 L24,6.62069069 L23.8981622,6.58735628 C21.8023099,5.90134825 19.6175562,5.55284681 17.4199908,5.55398944 C16.5063077,5.55447497 15.5935285,5.6136375 14.6868833,5.73113804 L14.6868833,5.73113804 L14.4455918,5.76542487 L14.2758621,5.79018757 L14.2758621,4.93301692 C14.2758621,4.84158539 14.2786144,4.74348697 14.2850366,4.63395961 L14.2850366,4.63395961 L14.2850366,4.56729078 L14.4263252,4.54729013 Z M17.9723082,2.27604381 C19.8782696,2.32598376 21.7717689,2.59181824 23.6145346,3.06817419 L23.6145346,3.06817419 L23.6519851,3.07795358 L23.6665999,3.11262595 C23.8190303,3.46857762 23.9254964,3.84156164 23.9835583,4.22303093 L23.9835583,4.22303093 L24,4.34482876 L23.8830816,4.31104542 C23.6921758,4.25325813 23.5167982,4.20880637 23.3441608,4.16435461 C21.5804276,3.70641117 19.767801,3.4504148 17.9430786,3.4015624 C17.7365083,3.39648047 17.548415,3.28452325 17.4496517,3.10786393 C17.3508884,2.93120462 17.3564595,2.71668197 17.4642665,2.54510461 C17.5720735,2.37352724 17.7657379,2.27096184 17.9723082,2.27604381 Z M15.9244453,2.27671009 C16.0972078,2.26773926 16.2655339,2.33039403 16.3855149,2.44833055 C16.505496,2.56626706 16.5652336,2.72778986 16.549145,2.89076481 L16.549145,2.89076481 C16.5233429,3.16648047 16.2834499,3.38321342 15.9882285,3.39656133 C15.5276767,3.41963275 15.0661868,3.4560146 14.607511,3.50393217 L14.607511,3.50393217 L14.4827586,3.5172426 L14.5221541,3.40454759 C14.6511365,3.03783934 14.8275667,2.68763072 15.0474271,2.36189687 L15.0474271,2.36189687 L15.0690008,2.32995183 L15.1083963,2.32995183 C15.3804126,2.30806356 15.652429,2.29031631 15.9244453,2.27671009 Z M19.0209572,1.43081922e-06 C20.3840112,-0.00107621617 21.6832247,0.606627629 22.5944175,1.67147997 L22.5944175,1.67147997 L22.7586207,1.86207029 L22.5200271,1.80489319 C20.6991456,1.37078148 18.837876,1.15120015 16.9706855,1.15021544 L16.9706855,1.15021544 C16.7085048,1.14830954 16.4408808,1.1530743 16.1759784,1.16165086 L16.1759784,1.16165086 L15.9310345,1.16927447 L16.1269897,1.01775517 C16.8882734,0.412686831 17.8045693,0.0608741628 18.7578693,0.00762647822 C18.8504037,1.43081922e-06 18.9365876,1.43081922e-06 19.0209572,1.43081922e-06 Z" id="Combined-Shape"></path>
                        </g>
                    </g>
                </g>
            </g>
        </g>
    </g>
</svg>