<?xml version="1.0" encoding="UTF-8"?>
<svg width="20px" height="20px" viewBox="0 0 20 20" version="1.1" xmlns="http://www.w3.org/2000/svg" xmlns:xlink="http://www.w3.org/1999/xlink">
    <title>编组 4</title>
    <g id="0817代币详情页" stroke="none" stroke-width="1" fill="none" fill-rule="evenodd">
        <g id="交易记录备份" transform="translate(-30.000000, -524.000000)">
            <g id="编组-4" transform="translate(30.000000, 524.000000)">
                <rect id="矩形" x="0" y="0" width="20" height="20"></rect>
                <g id="时间" transform="translate(2.000000, 2.000000)" fill="#3179FF" fill-rule="nonzero" stroke="#3179FF" stroke-width="0.4">
                    <path d="M8,1.6 C11.5346224,1.6 14.4,4.4653776 14.4,8 C14.4,11.5346224 11.5346224,14.4 8,14.4 C4.4653776,14.4 1.6,11.5346224 1.6,8 C1.6,4.4653776 4.4653776,1.6 8,1.6 M8,0 C3.581722,0 0,3.581722 0,8 C0,12.418278 3.581722,16 8,16 C12.418278,16 16,12.418278 16,8 C16,5.87826808 15.1571453,3.84343678 13.6568542,2.34314575 C12.1565632,0.842854723 10.1217319,0 8,0 Z" id="形状"></path>
                    <path d="M8,4 C8.4418278,4 8.8,4.3581722 8.8,4.8 L8.8,4.8 L8.8,7.199 L11.8666667,7.2 C12.204174,7.2 12.4831031,7.50096415 12.5272475,7.89144474 L12.5333333,8 C12.5333333,8.44182779 12.2348565,8.8 11.8666667,8.8 L11.8666667,8.8 L8.013,8.799 L8,8.8 C7.99524185,8.8 7.99049341,8.79995846 7.98575501,8.79987572 L7.86666667,8.8 C7.49847684,8.8 7.2,8.4418278 7.2,8 L7.2,8 L7.2,4.8 C7.2,4.3581722 7.5581722,4 8,4 Z" id="形状结合"></path>
                </g>
            </g>
        </g>
    </g>
</svg>